  0
SECTION
  2
HEADER
  9
$ACADVER
  1
AC1009
  9
$INSBASE
 10
0.0
 20
0.0
 30
0.0
  9
$EXTMIN
 10
-0.180115
 20
-17.447896
 30
0.0
  9
$EXTMAX
 10
55.437438
 20
52.0
 30
0.0
  9
$LIMMIN
 10
0.0
 20
0.0
  9
$LIMMAX
 10
12.0
 20
9.0
  9
$ORTHOMODE
 70
     0
  9
$REGENMODE
 70
     1
  9
$FILLMODE
 70
     1
  9
$QTEXTMODE
 70
     0
  9
$MIRRTEXT
 70
     1
  9
$DRAGMODE
 70
     2
  9
$LTSCALE
 40
1.0
  9
$OSMODE
 70
     0
  9
$ATTMODE
 70
     1
  9
$TEXTSIZE
 40
0.2
  9
$TRACEWID
 40
0.05
  9
$TEXTSTYLE
  7
STANDARD
  9
$CLAYER
  8
0
  9
$CELTYPE
  6
CONTINUOUS
  9
$CECOLOR
 62
   256
  9
$DIMSCALE
 40
1.0
  9
$DIMASZ
 40
0.18
  9
$DIMEXO
 40
0.0625
  9
$DIMDLI
 40
0.38
  9
$DIMRND
 40
0.0
  9
$DIMDLE
 40
0.0
  9
$DIMEXE
 40
0.18
  9
$DIMTP
 40
0.0
  9
$DIMTM
 40
0.0
  9
$DIMTXT
 40
0.18
  9
$DIMCEN
 40
0.09
  9
$DIMTSZ
 40
0.0
  9
$DIMTOL
 70
     0
  9
$DIMLIM
 70
     0
  9
$DIMTIH
 70
     1
  9
$DIMTOH
 70
     1
  9
$DIMSE1
 70
     0
  9
$DIMSE2
 70
     0
  9
$DIMTAD
 70
     0
  9
$DIMZIN
 70
     0
  9
$DIMBLK
  1

  9
$DIMASO
 70
     1
  9
$DIMSHO
 70
     1
  9
$DIMPOST
  1

  9
$DIMAPOST
  1

  9
$DIMALT
 70
     0
  9
$DIMALTD
 70
     2
  9
$DIMALTF
 40
25.4
  9
$DIMLFAC
 40
1.0
  9
$DIMTOFL
 70
     0
  9
$DIMTVP
 40
0.0
  9
$DIMTIX
 70
     0
  9
$DIMSOXD
 70
     0
  9
$DIMSAH
 70
     0
  9
$DIMBLK1
  1

  9
$DIMBLK2
  1

  9
$DIMSTYLE
  2
STANDARD
  9
$DIMCLRD
 70
     0
  9
$DIMCLRE
 70
     0
  9
$DIMCLRT
 70
     0
  9
$DIMTFAC
 40
1.0
  9
$DIMGAP
 40
0.09
  9
$LUNITS
 70
     2
  9
$LUPREC
 70
     4
  9
$AXISMODE
 70
     0
  9
$AXISUNIT
 10
0.0
 20
0.0
  9
$SKETCHINC
 40
0.1
  9
$FILLETRAD
 40
0.0
  9
$AUNITS
 70
     0
  9
$AUPREC
 70
     0
  9
$MENU
  1
acad
  9
$ELEVATION
 40
0.0
  9
$PELEVATION
 40
0.0
  9
$THICKNESS
 40
0.0
  9
$LIMCHECK
 70
     0
  9
$BLIPMODE
 70
     1
  9
$CHAMFERA
 40
0.0
  9
$CHAMFERB
 40
0.0
  9
$SKPOLY
 70
     0
  9
$TDCREATE
 40
2451613.411076389
  9
$TDUPDATE
 40
2451613.411076389
  9
$TDINDWG
 40
0.0000000000
  9
$TDUSRTIMER
 40
0.0000000000
  9
$USRTIMER
 70
     1
  9
$ANGBASE
 50
0.0
  9
$ANGDIR
 70
     0
  9
$PDMODE
 70
     0
  9
$PDSIZE
 40
0.0
  9
$PLINEWID
 40
0.0
  9
$COORDS
 70
     0
  9
$SPLFRAME
 70
     0
  9
$SPLINETYPE
 70
     6
  9
$SPLINESEGS
 70
    10
  9
$ATTDIA
 70
     0
  9
$ATTREQ
 70
     1
  9
$HANDLING
 70
     1
  9
$HANDSEED
  5
21D
  9
$SURFTAB1
 70
     6
  9
$SURFTAB2
 70
     6
  9
$SURFTYPE
 70
     6
  9
$SURFU
 70
     6
  9
$SURFV
 70
     6
  9
$UCSNAME
  2

  9
$UCSORG
 10
0.0
 20
0.0
 30
0.0
  9
$UCSXDIR
 10
1.0
 20
0.0
 30
0.0
  9
$UCSYDIR
 10
0.0
 20
1.0
 30
0.0
  9
$PUCSNAME
  2

  9
$PUCSORG
 10
0.0
 20
0.0
 30
0.0
  9
$PUCSXDIR
 10
1.0
 20
0.0
 30
0.0
  9
$PUCSYDIR
 10
0.0
 20
1.0
 30
0.0
  9
$USERI1
 70
     0
  9
$USERI2
 70
     0
  9
$USERI3
 70
     0
  9
$USERI4
 70
     0
  9
$USERI5
 70
     0
  9
$USERR1
 40
0.0
  9
$USERR2
 40
0.0
  9
$USERR3
 40
0.0
  9
$USERR4
 40
0.0
  9
$USERR5
 40
0.0
  9
$WORLDVIEW
 70
     1
  9
$SHADEDGE
 70
     3
  9
$SHADEDIF
 70
    70
  9
$TILEMODE
 70
     1
  9
$MAXACTVP
 70
    16
  9
$PINSBASE
 10
0.0
 20
0.0
 30
0.0
  9
$PLIMCHECK
 70
     0
  9
$PEXTMIN
 10
-1.000000E+20
 20
-1.000000E+20
 30
-1.000000E+20
  9
$PEXTMAX
 10
-1.000000E+20
 20
-1.000000E+20
 30
-1.000000E+20
  9
$PLIMMIN
 10
0.0
 20
0.0
  9
$PLIMMAX
 10
12.0
 20
9.0
  9
$UNITMODE
 70
     0
  9
$VISRETAIN
 70
     0
  9
$PLINEGEN
 70
     1
  9
$PSLTSCALE
 70
     0
  9
$TREEDEPTH
 70
  3020
  9
$DWGCODEPAGE
  3
ansi_1252
  0
ENDSEC
  0
SECTION
  2
TABLES
  0
TABLE
  2
VPORT
 70
     4
  0
VPORT
  2
*ACTIVE
 70
     0
 10
0.004188
 20
0.503771
 11
0.498429
 21
0.995475
 12
0.0
 22
0.0
 13
0.0
 23
0.0
 14
0.0
 24
0.0
 15
0.0
 25
0.0
 16
0.0
 26
0.0
 36
1.0
 17
21.90616
 27
22.0
 37
0.0
 40
61.5
 41
1.447853
 42
50.0
 43
0.0
 44
0.0
 50
0.0
 51
0.0
 71
     0
 72
   100
 73
     1
 74
     0
 75
     0
 76
     0
 77
     0
 78
     0
  0
VPORT
  2
*ACTIVE
 70
     0
 10
0.501571
 20
0.503771
 11
0.995812
 21
0.995475
 12
0.0
 22
0.0
 13
0.0
 23
0.0
 14
0.0
 24
0.0
 15
0.0
 25
0.0
 16
0.0
 26
0.0
 36
1.0
 17
21.90616
 27
22.0
 37
0.0
 40
61.5
 41
1.447853
 42
50.0
 43
0.0
 44
0.0
 50
0.0
 51
0.0
 71
     0
 72
   100
 73
     1
 74
     0
 75
     0
 76
     0
 77
     0
 78
     0
  0
VPORT
  2
*ACTIVE
 70
     0
 10
0.004188
 20
0.00905
 11
0.498429
 21
0.499246
 12
0.0
 22
0.0
 13
0.0
 23
0.0
 14
0.0
 24
0.0
 15
0.0
 25
0.0
 16
0.0
 26
0.0
 36
1.0
 17
21.871357
 27
22.0
 37
0.0
 40
61.5
 41
1.452308
 42
50.0
 43
0.0
 44
0.0
 50
0.0
 51
0.0
 71
     0
 72
   100
 73
     1
 74
     0
 75
     0
 76
     0
 77
     0
 78
     0
  0
VPORT
  2
*ACTIVE
 70
     0
 10
0.501571
 20
0.00905
 11
0.995812
 21
0.499246
 12
0.0
 22
0.0
 13
0.0
 23
0.0
 14
0.0
 24
0.0
 15
0.0
 25
0.0
 16
0.0
 26
0.0
 36
1.0
 17
21.871357
 27
22.0
 37
0.0
 40
61.5
 41
1.452308
 42
50.0
 43
0.0
 44
0.0
 50
0.0
 51
0.0
 71
     0
 72
   100
 73
     1
 74
     0
 75
     0
 76
     0
 77
     0
 78
     0
  0
ENDTAB
  0
TABLE
  2
LTYPE
 70
     7
  0
LTYPE
  2
CONTINUOUS
 70
     0
  3
Solid line
 72
    65
 73
     0
 40
0.0
  0
LTYPE
  2
DOT
 70
    64
  3
. . . . . . . . . . . . . . . . . . . . . . . . . . . . . . . . .
 72
    65
 73
     2
 40
0.25
 49
0.0
 49
-0.25
  0
LTYPE
  2
HIDDEN
 70
    64
  3
__ __ __ __ __ __ __ __ __ __ __ __ __ __ __ __ __ __ __ __ __ 
 72
    65
 73
     2
 40
0.375
 49
0.25
 49
-0.125
  0
LTYPE
  2
DASHED
 70
    64
  3
__ __ __ __ __ __ __ __ __ __ __ __ __ __ __ __ __ __ __ __ __
 72
    65
 73
     2
 40
0.75
 49
0.5
 49
-0.25
  0
LTYPE
  2
DASHDOT
 70
    64
  3
__ . __ . __ . __ . __ . __ . __ . __ . __ . __ . __ . __ . _
 72
    65
 73
     4
 40
1.0
 49
0.5
 49
-0.25
 49
0.0
 49
-0.25
  0
LTYPE
  2
DIVIDE
 70
    64
  3
____ . . ____ . . ____ . . ____ . . ____ . . ____ . . ____ . .
 72
    65
 73
     6
 40
1.25
 49
0.5
 49
-0.25
 49
0.0
 49
-0.25
 49
0.0
 49
-0.25
  0
LTYPE
  2
CENTER
 70
    64
  3
____ _ ____ _ ____ _ ____ _ ____ _ ____ _ ____ _ ____ _ ____ _
 72
    65
 73
     4
 40
2.0
 49
1.25
 49
-0.25
 49
0.25
 49
-0.25
  0
ENDTAB
  0
TABLE
  2
LAYER
 70
    10
  0
LAYER
  2
0
 70
    64
 62
     7
  6
CONTINUOUS
  0
LAYER
  2
CONSTRUCTION_CLASS
 70
     0
 62
     7
  6
CONTINUOUS
  0
LAYER
  2
PATTERN_CLASS
 70
     0
 62
     7
  6
CONTINUOUS
  0
LAYER
  2
DRYWALL
 70
    64
 62
     7
  6
CONTINUOUS
  0
LAYER
  2
EXTERIOR
 70
    64
 62
     7
  6
CONTINUOUS
  0
LAYER
  2
DOORS
 70
    64
 62
     7
  6
CONTINUOUS
  0
LAYER
  2
SWEEPS
 70
    64
 62
     7
  6
CONTINUOUS
  0
LAYER
  2
JAMBS
 70
    64
 62
     7
  6
CONTINUOUS
  0
LAYER
  2
SLAB
 70
    64
 62
     7
  6
CONTINUOUS
  0
LAYER
  2
DEFPOINTS
 70
    64
 62
     7
  6
CONTINUOUS
  0
ENDTAB
  0
TABLE
  2
STYLE
 70
     2
  0
STYLE
  2
STANDARD
 70
     0
 40
0.0
 41
1.0
 50
0.0
 71
     0
 42
0.0
  3
txt
  4

  0
STYLE
  2
ROMANS
 70
     0
 40
0.2
 41
1.0
 50
0.0
 71
     0
 42
0.2
  3
ROMANS
  4

  0
ENDTAB
  0
TABLE
  2
VIEW
 70
     0
  0
ENDTAB
  0
TABLE
  2
UCS
 70
     0
  0
ENDTAB
  0
TABLE
  2
APPID
 70
     1
  0
APPID
  2
ACAD
 70
     0
  0
ENDTAB
  0
TABLE
  2
DIMSTYLE
 70
     2
  0
DIMSTYLE
  2
STANDARD
 70
     0
  3

  4

  5

  6

  7

 40
1.0
 41
0.18
 42
0.0625
 43
0.38
 44
0.18
 45
0.0
 46
0.0
 47
0.0
 48
0.0
140
0.18
141
0.09
142
0.0
143
25.4
144
1.0
145
0.0
146
1.0
147
0.09
 71
     0
 72
     0
 73
     1
 74
     1
 75
     0
 76
     0
 77
     0
 78
     0
170
     0
171
     2
172
     0
173
     0
174
     0
175
     0
176
     0
177
     0
178
     0
  0
DIMSTYLE
  2
MSADIM
 70
     0
  3

  4

  5

  6

  7

 40
1.0
 41
0.75
 42
0.375
 43
0.0
 44
0.375
 45
0.125
 46
0.0
 47
0.0
 48
0.0
140
0.75
141
0.375
142
0.0
143
25.4
144
1.0
145
0.375
146
1.0
147
0.375
 71
     0
 72
     0
 73
     0
 74
     0
 75
     0
 76
     0
 77
     1
 78
     2
170
     0
171
     2
172
     0
173
     0
174
     0
175
     0
176
     0
177
     0
178
     0
  0
ENDTAB
  0
ENDSEC
  0
SECTION
  2
BLOCKS
  0
BLOCK
  8
DOORS
  6
CONTINUOUS
 62
     1
  5
84
  2
DOOR
 70
     0
 10
0.0
 20
0.0
 30
0.0
  3
DOOR
  0
POLYLINE
  8
DOORS
  6
CONTINUOUS
 62
     1
  5
85
 66
     1
 10
0.0
 20
0.0
 30
0.0
 70
     1
  0
VERTEX
  8
DOORS
  6
CONTINUOUS
 62
     1
  5
86
 10
0.0
 20
0.166667
 30
0.0
  0
VERTEX
  8
DOORS
  6
CONTINUOUS
 62
     1
  5
87
 10
3.0
 20
0.166667
 30
0.0
  0
VERTEX
  8
DOORS
  6
CONTINUOUS
 62
     1
  5
88
 10
3.0
 20
0.333333
 30
0.0
  0
VERTEX
  8
DOORS
  6
CONTINUOUS
 62
     1
  5
89
 10
0.0
 20
0.333323
 30
0.0
  0
SEQEND
  8
DOORS
  6
CONTINUOUS
 62
     1
  5
8A
  0
ARC
  8
SWEEPS
  6
CONTINUOUS
 62
     7
  5
8C
 10
0.0
 20
0.166667
 30
0.0
 40
3.0
 50
360.0
 51
90.0
210
0.0
220
0.0
230
1.0
  0
POLYLINE
  8
JAMBS
  6
CONTINUOUS
 62
     3
  5
8E
 66
     1
 10
0.0
 20
0.0
 30
0.0
 70
     1
  0
VERTEX
  8
JAMBS
  6
CONTINUOUS
 62
     3
  5
8F
 10
0.0
 20
0.166667
 30
0.0
  0
VERTEX
  8
JAMBS
  6
CONTINUOUS
 62
     3
  5
90
 10
-0.333333
 20
0.166667
 30
0.0
  0
VERTEX
  8
JAMBS
  6
CONTINUOUS
 62
     3
  5
91
 10
-0.333323
 20
0.0
 30
0.0
  0
VERTEX
  8
JAMBS
  6
CONTINUOUS
 62
     3
  5
92
 10
0.0
 20
0.0
 30
0.0
  0
SEQEND
  8
JAMBS
  6
CONTINUOUS
 62
     3
  5
93
  0
POLYLINE
  8
JAMBS
  6
CONTINUOUS
 62
     3
  5
94
 66
     1
 10
0.0
 20
0.0
 30
0.0
 70
     1
  0
VERTEX
  8
JAMBS
  6
CONTINUOUS
 62
     3
  5
95
 10
0.0
 20
3.333333
 30
0.0
  0
VERTEX
  8
JAMBS
  6
CONTINUOUS
 62
     3
  5
96
 10
-0.333333
 20
3.333333
 30
0.0
  0
VERTEX
  8
JAMBS
  6
CONTINUOUS
 62
     3
  5
97
 10
-0.333333
 20
3.166667
 30
0.0
  0
VERTEX
  8
JAMBS
  6
CONTINUOUS
 62
     3
  5
98
 10
0.0
 20
3.166656
 30
0.0
  0
SEQEND
  8
JAMBS
  6
CONTINUOUS
 62
     3
  5
99
  0
ENDBLK
  8
JAMBS
  6
CONTINUOUS
 62
     3
  5
9A
  0
BLOCK
  8
0
  6
CONTINUOUS
 62
     4
  5
AF
  2
*D1
 70
     1
 10
0.0
 20
0.0
 30
0.0
  3
*N1
  0
LINE
  8
0
  6
CONTINUOUS
 62
     4
  5
B0
 10
26.265167
 20
-8.265167
 30
0.0
 11
29.923344
 21
-11.923344
 31
0.0
  0
LINE
  8
0
  6
CONTINUOUS
 62
     4
  5
B1
 10
35.586656
 20
1.056323
 30
0.0
 11
39.244833
 21
-2.601854
 31
0.0
  0
LINE
  8
0
  6
CONTINUOUS
 62
     4
  5
B2
 10
29.658177
 20
-11.658177
 30
0.0
 11
38.979667
 21
-2.336688
 31
0.0
  0
SOLID
  8
0
  6
CONTINUOUS
 62
     4
  5
B3
 10
30.321094
 20
-11.260438
 30
0.0
 11
29.658177
 21
-11.658177
 31
0.0
 12
30.055927
 22
-10.995271
 32
0.0
 13
30.055927
 23
-10.995271
 33
0.0
  0
SOLID
  8
0
  6
CONTINUOUS
 62
     4
  5
B4
 10
38.31676
 20
-2.734437
 30
0.0
 11
38.979667
 21
-2.336688
 31
0.0
 12
38.581927
 22
-2.999604
 32
0.0
 13
38.581927
 23
-2.999604
 33
0.0
  0
TEXT
  8
0
  6
CONTINUOUS
 62
     4
  5
B5
 10
32.790542
 20
-7.99549
 30
0.0
 40
0.75
  1
13'-2 1/4 "
 50
315.0
 41
0.666667
  7
ROMANS
 71
     4
  0
POINT
  8
DEFPOINTS
  6
BYBLOCK
 62
     0
 48
0.0
  5
B6
 10
29.65818
 20
-11.65818
 30
0.0
  0
POINT
  8
DEFPOINTS
  6
BYBLOCK
 62
     0
 48
0.0
  5
B7
 10
35.32149
 20
1.32149
 30
0.0
  0
POINT
  8
DEFPOINTS
  6
BYBLOCK
 62
     0
 48
0.0
  5
B8
 10
26.0
 20
-8.0
 30
0.0
  0
POINT
  8
DEFPOINTS
  6
BYBLOCK
 62
     0
 48
0.0
  5
B9
 10
34.053762
 20
-6.732269
 30
0.0
  0
ENDBLK
  8
0
  6
CONTINUOUS
 62
     4
  5
BA
  0
BLOCK
  8
0
  6
CONTINUOUS
 62
     4
  5
BD
  2
*D2
 70
     1
 10
0.0
 20
0.0
 30
0.0
  3
*N2
  0
LINE
  8
0
  6
CONTINUOUS
 62
     4
  5
BE
 10
37.943677
 20
3.413344
 30
0.0
 11
42.750906
 21
-1.393885
 31
0.0
  0
LINE
  8
0
  6
CONTINUOUS
 62
     4
  5
BF
 10
39.244833
 20
-2.601854
 30
0.0
 11
40.393885
 21
-3.750906
 31
0.0
  0
LINE
  8
0
  6
CONTINUOUS
 62
     4
  5
C0
 10
36.983562
 20
-6.630896
 30
0.0
 11
40.128719
 21
-3.48574
 31
0.0
  0
LINE
  8
0
  6
CONTINUOUS
 62
     4
  5
C1
 10
43.723177
 20
0.108719
 30
0.0
 11
42.48574
 21
-1.128719
 31
0.0
  0
SOLID
  8
0
  6
CONTINUOUS
 62
     4
  5
C2
 10
39.465802
 20
-3.88349
 30
0.0
 11
40.128719
 21
-3.48574
 31
0.0
 12
39.730969
 22
-4.148656
 32
0.0
 13
39.730969
 23
-4.148656
 33
0.0
  0
SOLID
  8
0
  6
CONTINUOUS
 62
     4
  5
C3
 10
43.148656
 20
-0.730969
 30
0.0
 11
42.48574
 21
-1.128719
 31
0.0
 12
42.88349
 22
-0.465802
 32
0.0
 13
42.88349
 23
-0.465802
 33
0.0
  0
TEXT
  8
0
  6
CONTINUOUS
 62
     4
  5
C4
 10
36.718396
 20
-6.365729
 30
0.0
 40
0.75
  1
3'-4"
 50
315.0
 41
0.666667
  7
ROMANS
 71
     4
  0
POINT
  8
DEFPOINTS
  6
BYBLOCK
 62
     0
 48
0.0
  5
C5
 10
42.485741
 20
-1.12872
 30
0.0
  0
POINT
  8
DEFPOINTS
  6
BYBLOCK
 62
     0
 48
0.0
  5
C6
 10
37.67851
 20
3.67851
 30
0.0
  0
POINT
  8
DEFPOINTS
  6
BYBLOCK
 62
     0
 48
0.0
  5
C7
 10
35.32149
 20
1.32149
 30
0.0
  0
POINT
  8
DEFPOINTS
  6
BYBLOCK
 62
     0
 48
0.0
  5
C8
 10
37.539675
 20
-5.54445
 30
0.0
  0
ENDBLK
  8
0
  6
CONTINUOUS
 62
     4
  5
C9
  0
BLOCK
  8
0
  6
CONTINUOUS
 62
     4
  5
CC
  2
*D3
 70
     1
 10
0.0
 20
0.0
 30
0.0
  3
*N3
  0
LINE
  8
0
  6
CONTINUOUS
 62
     4
  5
CD
 10
47.265167
 20
12.734833
 30
0.0
 11
50.923344
 21
9.076656
 31
0.0
  0
LINE
  8
0
  6
CONTINUOUS
 62
     4
  5
CE
 10
41.336687
 20
0.020333
 30
0.0
 11
50.658177
 21
9.341823
 31
0.0
  0
SOLID
  8
0
  6
CONTINUOUS
 62
     4
  5
CF
 10
41.999604
 20
0.418073
 30
0.0
 11
41.336687
 21
0.020333
 31
0.0
 12
41.734437
 22
0.68324
 32
0.0
 13
41.734437
 23
0.68324
 33
0.0
  0
SOLID
  8
0
  6
CONTINUOUS
 62
     4
  5
D0
 10
49.995271
 20
8.944073
 30
0.0
 11
50.658177
 21
9.341823
 31
0.0
 12
50.260437
 22
8.678906
 32
0.0
 13
50.260437
 23
8.678906
 33
0.0
  0
TEXT
  8
0
  6
CONTINUOUS
 62
     4
  5
D1
 10
44.469052
 20
3.683021
 30
0.0
 40
0.75
  1
13'-2 1/4 "
 50
315.0
 41
0.666667
  7
ROMANS
 71
     4
  0
POINT
  8
DEFPOINTS
  6
BYBLOCK
 62
     0
 48
0.0
  5
D2
 10
42.485741
 20
-1.12872
 30
0.0
  0
POINT
  8
DEFPOINTS
  6
BYBLOCK
 62
     0
 48
0.0
  5
D3
 10
47.0
 20
13.0
 30
0.0
  0
POINT
  8
DEFPOINTS
  6
BYBLOCK
 62
     0
 48
0.0
  5
D4
 10
37.67851
 20
3.67851
 30
0.0
  0
POINT
  8
DEFPOINTS
  6
BYBLOCK
 62
     0
 48
0.0
  5
D5
 10
45.732273
 20
4.946241
 30
0.0
  0
ENDBLK
  8
0
  6
CONTINUOUS
 62
     4
  5
D6
  0
BLOCK
  8
0
  6
CONTINUOUS
 62
     4
  5
D9
  2
*D4
 70
     1
 10
0.0
 20
0.0
 30
0.0
  3
*N4
  0
LINE
  8
0
  6
CONTINUOUS
 62
     4
  5
DA
 10
5.0
 20
-8.375
 30
0.0
 11
5.0
 21
-15.256167
 31
0.0
  0
LINE
  8
0
  6
CONTINUOUS
 62
     4
  5
DB
 10
26.0
 20
-8.375
 30
0.0
 11
26.0
 21
-15.256167
 31
0.0
  0
LINE
  8
0
  6
CONTINUOUS
 62
     4
  5
DC
 10
5.0
 20
-14.881167
 30
0.0
 11
26.0
 21
-14.881167
 31
0.0
  0
SOLID
  8
0
  6
CONTINUOUS
 62
     4
  5
DD
 10
5.75
 20
-15.068667
 30
0.0
 11
5.0
 21
-14.881167
 31
0.0
 12
5.75
 22
-14.693667
 32
0.0
 13
5.75
 23
-14.693667
 33
0.0
  0
SOLID
  8
0
  6
CONTINUOUS
 62
     4
  5
DE
 10
25.25
 20
-14.693667
 30
0.0
 11
26.0
 21
-14.881167
 31
0.0
 12
25.25
 22
-15.068667
 32
0.0
 13
25.25
 23
-15.068667
 33
0.0
  0
TEXT
  8
0
  6
CONTINUOUS
 62
     4
  5
DF
 10
14.088542
 20
-14.506167
 30
0.0
 40
0.75
  1
21'-0"
 41
0.666667
  7
ROMANS
 71
     4
  0
POINT
  8
DEFPOINTS
  6
BYBLOCK
 62
     0
 48
0.0
  5
E0
 10
5.0
 20
-14.881167
 30
0.0
  0
POINT
  8
DEFPOINTS
  6
BYBLOCK
 62
     0
 48
0.0
  5
E1
 10
26.0
 20
-8.0
 30
0.0
  0
POINT
  8
DEFPOINTS
  6
BYBLOCK
 62
     0
 48
0.0
  5
E2
 10
5.0
 20
-8.0
 30
0.0
  0
POINT
  8
DEFPOINTS
  6
BYBLOCK
 62
     0
 48
0.0
  5
E3
 10
15.500005
 20
-14.506167
 30
0.0
  0
ENDBLK
  8
0
  6
CONTINUOUS
 62
     4
  5
E4
  0
BLOCK
  8
0
  6
CONTINUOUS
 62
     4
  5
E7
  2
*D5
 70
     1
 10
0.0
 20
0.0
 30
0.0
  3
*N5
  0
LINE
  8
0
  6
CONTINUOUS
 62
     4
  5
E8
 10
47.0
 20
-8.375
 30
0.0
 11
47.0
 21
-15.256167
 31
0.0
  0
LINE
  8
0
  6
CONTINUOUS
 62
     4
  5
E9
 10
26.0
 20
-14.881167
 30
0.0
 11
47.0
 21
-14.881167
 31
0.0
  0
SOLID
  8
0
  6
CONTINUOUS
 62
     4
  5
EA
 10
26.75
 20
-15.068667
 30
0.0
 11
26.0
 21
-14.881167
 31
0.0
 12
26.75
 22
-14.693667
 32
0.0
 13
26.75
 23
-14.693667
 33
0.0
  0
SOLID
  8
0
  6
CONTINUOUS
 62
     4
  5
EB
 10
46.25
 20
-14.693667
 30
0.0
 11
47.0
 21
-14.881167
 31
0.0
 12
46.25
 22
-15.068667
 32
0.0
 13
46.25
 23
-15.068667
 33
0.0
  0
TEXT
  8
0
  6
CONTINUOUS
 62
     4
  5
EC
 10
35.088542
 20
-14.506167
 30
0.0
 40
0.75
  1
21'-0"
 41
0.666667
  7
ROMANS
 71
     4
  0
POINT
  8
DEFPOINTS
  6
BYBLOCK
 62
     0
 48
0.0
  5
ED
 10
26.0
 20
-14.881167
 30
0.0
  0
POINT
  8
DEFPOINTS
  6
BYBLOCK
 62
     0
 48
0.0
  5
EE
 10
47.0
 20
-8.0
 30
0.0
  0
POINT
  8
DEFPOINTS
  6
BYBLOCK
 62
     0
 48
0.0
  5
EF
 10
26.0
 20
-8.0
 30
0.0
  0
POINT
  8
DEFPOINTS
  6
BYBLOCK
 62
     0
 48
0.0
  5
F0
 10
36.500005
 20
-14.506167
 30
0.0
  0
ENDBLK
  8
0
  6
CONTINUOUS
 62
     4
  5
F1
  0
BLOCK
  8
0
  6
CONTINUOUS
 62
     4
  5
F4
  2
*D6
 70
     1
 10
0.0
 20
0.0
 30
0.0
  3
*N6
  0
LINE
  8
0
  6
CONTINUOUS
 62
     4
  5
F5
 10
5.0
 20
-8.375
 30
0.0
 11
5.0
 21
-17.447896
 31
0.0
  0
LINE
  8
0
  6
CONTINUOUS
 62
     4
  5
F6
 10
47.0
 20
-8.375
 30
0.0
 11
47.0
 21
-17.447896
 31
0.0
  0
LINE
  8
0
  6
CONTINUOUS
 62
     4
  5
F7
 10
5.0
 20
-17.072896
 30
0.0
 11
47.0
 21
-17.072896
 31
0.0
  0
SOLID
  8
0
  6
CONTINUOUS
 62
     4
  5
F8
 10
5.75
 20
-17.260396
 30
0.0
 11
5.0
 21
-17.072896
 31
0.0
 12
5.75
 22
-16.885396
 32
0.0
 13
5.75
 23
-16.885396
 33
0.0
  0
SOLID
  8
0
  6
CONTINUOUS
 62
     4
  5
F9
 10
46.25
 20
-16.885396
 30
0.0
 11
47.0
 21
-17.072896
 31
0.0
 12
46.25
 22
-17.260396
 32
0.0
 13
46.25
 23
-17.260396
 33
0.0
  0
TEXT
  8
0
  6
CONTINUOUS
 62
     4
  5
FA
 10
24.588542
 20
-16.697896
 30
0.0
 40
0.75
  1
42'-0"
 41
0.666667
  7
ROMANS
 71
     4
  0
POINT
  8
DEFPOINTS
  6
BYBLOCK
 62
     0
 48
0.0
  5
FB
 10
5.0
 20
-17.072896
 30
0.0
  0
POINT
  8
DEFPOINTS
  6
BYBLOCK
 62
     0
 48
0.0
  5
FC
 10
47.0
 20
-8.0
 30
0.0
  0
POINT
  8
DEFPOINTS
  6
BYBLOCK
 62
     0
 48
0.0
  5
FD
 10
5.0
 20
-8.0
 30
0.0
  0
POINT
  8
DEFPOINTS
  6
BYBLOCK
 62
     0
 48
0.0
  5
FE
 10
26.000005
 20
-16.697896
 30
0.0
  0
ENDBLK
  8
0
  6
CONTINUOUS
 62
     4
  5
FF
  0
BLOCK
  8
0
  6
CONTINUOUS
 62
     4
  5
102
  2
*D7
 70
     1
 10
0.0
 20
0.0
 30
0.0
  3
*N7
  0
LINE
  8
0
  6
CONTINUOUS
 62
     4
  5
103
 10
47.375
 20
-8.0
 30
0.0
 11
53.134333
 21
-8.0
 31
0.0
  0
LINE
  8
0
  6
CONTINUOUS
 62
     4
  5
104
 10
47.375
 20
13.0
 30
0.0
 11
53.134333
 21
13.0
 31
0.0
  0
LINE
  8
0
  6
CONTINUOUS
 62
     4
  5
105
 10
52.759333
 20
-8.0
 30
0.0
 11
52.759333
 21
13.0
 31
0.0
  0
SOLID
  8
0
  6
CONTINUOUS
 62
     4
  5
106
 10
52.946833
 20
-7.25
 30
0.0
 11
52.759333
 21
-8.0
 31
0.0
 12
52.571833
 22
-7.25
 32
0.0
 13
52.571833
 23
-7.25
 33
0.0
  0
SOLID
  8
0
  6
CONTINUOUS
 62
     4
  5
107
 10
52.571833
 20
12.25
 30
0.0
 11
52.759333
 21
13.0
 31
0.0
 12
52.946833
 22
12.25
 32
0.0
 13
52.946833
 23
12.25
 33
0.0
  0
TEXT
  8
0
  6
CONTINUOUS
 62
     4
  5
108
 10
52.384333
 20
1.088542
 30
0.0
 40
0.75
  1
21'-0"
 50
270.0
 41
0.666667
  7
ROMANS
 71
     4
  0
POINT
  8
DEFPOINTS
  6
BYBLOCK
 62
     0
 48
0.0
  5
109
 10
52.759333
 20
-8.0
 30
0.0
  0
POINT
  8
DEFPOINTS
  6
BYBLOCK
 62
     0
 48
0.0
  5
10A
 10
47.0
 20
13.0
 30
0.0
  0
POINT
  8
DEFPOINTS
  6
BYBLOCK
 62
     0
 48
0.0
  5
10B
 10
47.0
 20
-8.0
 30
0.0
  0
POINT
  8
DEFPOINTS
  6
BYBLOCK
 62
     0
 48
0.0
  5
10C
 10
52.384333
 20
2.500005
 30
0.0
  0
ENDBLK
  8
0
  6
CONTINUOUS
 62
     4
  5
10D
  0
BLOCK
  8
0
  6
CONTINUOUS
 62
     4
  5
110
  2
*D8
 70
     1
 10
0.0
 20
0.0
 30
0.0
  3
*N8
  0
LINE
  8
0
  6
CONTINUOUS
 62
     4
  5
111
 10
47.375
 20
52.0
 30
0.0
 11
53.134333
 21
52.0
 31
0.0
  0
LINE
  8
0
  6
CONTINUOUS
 62
     4
  5
112
 10
52.759333
 20
13.0
 30
0.0
 11
52.759333
 21
52.0
 31
0.0
  0
SOLID
  8
0
  6
CONTINUOUS
 62
     4
  5
113
 10
52.946833
 20
13.75
 30
0.0
 11
52.759333
 21
13.0
 31
0.0
 12
52.571833
 22
13.75
 32
0.0
 13
52.571833
 23
13.75
 33
0.0
  0
SOLID
  8
0
  6
CONTINUOUS
 62
     4
  5
114
 10
52.571833
 20
51.25
 30
0.0
 11
52.759333
 21
52.0
 31
0.0
 12
52.946833
 22
51.25
 32
0.0
 13
52.946833
 23
51.25
 33
0.0
  0
TEXT
  8
0
  6
CONTINUOUS
 62
     4
  5
115
 10
52.384333
 20
31.088542
 30
0.0
 40
0.75
  1
39'-0"
 50
270.0
 41
0.666667
  7
ROMANS
 71
     4
  0
POINT
  8
DEFPOINTS
  6
BYBLOCK
 62
     0
 48
0.0
  5
116
 10
52.759333
 20
13.0
 30
0.0
  0
POINT
  8
DEFPOINTS
  6
BYBLOCK
 62
     0
 48
0.0
  5
117
 10
47.0
 20
52.0
 30
0.0
  0
POINT
  8
DEFPOINTS
  6
BYBLOCK
 62
     0
 48
0.0
  5
118
 10
47.0
 20
13.0
 30
0.0
  0
POINT
  8
DEFPOINTS
  6
BYBLOCK
 62
     0
 48
0.0
  5
119
 10
52.384333
 20
32.500005
 30
0.0
  0
ENDBLK
  8
0
  6
CONTINUOUS
 62
     4
  5
11A
  0
BLOCK
  8
0
  6
CONTINUOUS
 62
     4
  5
11D
  2
*D9
 70
     1
 10
0.0
 20
0.0
 30
0.0
  3
*N9
  0
LINE
  8
0
  6
CONTINUOUS
 62
     4
  5
11E
 10
47.375
 20
-8.0
 30
0.0
 11
55.437438
 21
-8.0
 31
0.0
  0
LINE
  8
0
  6
CONTINUOUS
 62
     4
  5
11F
 10
47.375
 20
52.0
 30
0.0
 11
55.437438
 21
52.0
 31
0.0
  0
LINE
  8
0
  6
CONTINUOUS
 62
     4
  5
120
 10
55.062438
 20
-8.0
 30
0.0
 11
55.062438
 21
52.0
 31
0.0
  0
SOLID
  8
0
  6
CONTINUOUS
 62
     4
  5
121
 10
55.249938
 20
-7.25
 30
0.0
 11
55.062438
 21
-8.0
 31
0.0
 12
54.874938
 22
-7.25
 32
0.0
 13
54.874938
 23
-7.25
 33
0.0
  0
SOLID
  8
0
  6
CONTINUOUS
 62
     4
  5
122
 10
54.874938
 20
51.25
 30
0.0
 11
55.062438
 21
52.0
 31
0.0
 12
55.249938
 22
51.25
 32
0.0
 13
55.249938
 23
51.25
 33
0.0
  0
TEXT
  8
0
  6
CONTINUOUS
 62
     4
  5
123
 10
54.687438
 20
20.588542
 30
0.0
 40
0.75
  1
60'-0"
 50
270.0
 41
0.666667
  7
ROMANS
 71
     4
  0
POINT
  8
DEFPOINTS
  6
BYBLOCK
 62
     0
 48
0.0
  5
124
 10
55.062438
 20
-8.0
 30
0.0
  0
POINT
  8
DEFPOINTS
  6
BYBLOCK
 62
     0
 48
0.0
  5
125
 10
47.0
 20
52.0
 30
0.0
  0
POINT
  8
DEFPOINTS
  6
BYBLOCK
 62
     0
 48
0.0
  5
126
 10
47.0
 20
-8.0
 30
0.0
  0
POINT
  8
DEFPOINTS
  6
BYBLOCK
 62
     0
 48
0.0
  5
127
 10
54.687438
 20
22.000005
 30
0.0
  0
ENDBLK
  8
0
  6
CONTINUOUS
 62
     4
  5
128
  0
BLOCK
  8
0
  6
CONTINUOUS
 62
     4
  5
12B
  2
*D10
 70
     1
 10
0.0
 20
0.0
 30
0.0
  3
*N10
  0
LINE
  8
0
  6
CONTINUOUS
 62
     4
  5
12C
 10
26.265167
 20
-8.265167
 30
0.0
 11
30.99699
 21
-12.99699
 31
0.0
  0
LINE
  8
0
  6
CONTINUOUS
 62
     4
  5
12D
 10
47.265167
 20
12.734833
 30
0.0
 11
51.99699
 21
8.00301
 31
0.0
  0
LINE
  8
0
  6
CONTINUOUS
 62
     4
  5
12E
 10
30.731823
 20
-12.731823
 30
0.0
 11
51.731823
 21
8.268177
 31
0.0
  0
SOLID
  8
0
  6
CONTINUOUS
 62
     4
  5
12F
 10
31.39474
 20
-12.334083
 30
0.0
 11
30.731823
 21
-12.731823
 31
0.0
 12
31.129573
 22
-12.068917
 32
0.0
 13
31.129573
 23
-12.068917
 33
0.0
  0
SOLID
  8
0
  6
CONTINUOUS
 62
     4
  5
130
 10
51.068917
 20
7.870427
 30
0.0
 11
51.731823
 21
8.268177
 31
0.0
 12
51.334083
 22
7.60526
 32
0.0
 13
51.334083
 23
7.60526
 33
0.0
  0
TEXT
  8
0
  6
CONTINUOUS
 62
     4
  5
131
 10
39.703438
 20
-3.229875
 30
0.0
 40
0.75
  1
29'-8 3/8 "
 50
315.0
 41
0.666667
  7
ROMANS
 71
     4
  0
POINT
  8
DEFPOINTS
  6
BYBLOCK
 62
     0
 48
0.0
  5
132
 10
30.731826
 20
-12.731826
 30
0.0
  0
POINT
  8
DEFPOINTS
  6
BYBLOCK
 62
     0
 48
0.0
  5
133
 10
47.0
 20
13.0
 30
0.0
  0
POINT
  8
DEFPOINTS
  6
BYBLOCK
 62
     0
 48
0.0
  5
134
 10
26.0
 20
-8.0
 30
0.0
  0
POINT
  8
DEFPOINTS
  6
BYBLOCK
 62
     0
 48
0.0
  5
135
 10
40.966658
 20
-1.966655
 30
0.0
  0
ENDBLK
  8
0
  6
CONTINUOUS
 62
     4
  5
136
  0
BLOCK
  8
0
  6
CONTINUOUS
 62
     4
  5
139
  2
*D11
 70
     1
 10
0.0
 20
0.0
 30
0.0
  3
*N11
  0
LINE
  8
0
  6
CONTINUOUS
 62
     4
  5
13A
 10
16.9375
 20
4.729167
 30
0.0
 11
16.9375
 21
2.146646
 31
0.0
  0
LINE
  8
0
  6
CONTINUOUS
 62
     4
  5
13B
 10
17.9375
 20
4.729167
 30
0.0
 11
17.9375
 21
2.146646
 31
0.0
  0
LINE
  8
0
  6
CONTINUOUS
 62
     4
  5
13C
 10
12.489573
 20
2.521646
 30
0.0
 11
16.9375
 21
2.521646
 31
0.0
  0
LINE
  8
0
  6
CONTINUOUS
 62
     4
  5
13D
 10
19.6875
 20
2.521646
 30
0.0
 11
17.9375
 21
2.521646
 31
0.0
  0
SOLID
  8
0
  6
CONTINUOUS
 62
     4
  5
13E
 10
16.1875
 20
2.709146
 30
0.0
 11
16.9375
 21
2.521646
 31
0.0
 12
16.1875
 22
2.334146
 32
0.0
 13
16.1875
 23
2.334146
 33
0.0
  0
SOLID
  8
0
  6
CONTINUOUS
 62
     4
  5
13F
 10
18.6875
 20
2.334146
 30
0.0
 11
17.9375
 21
2.521646
 31
0.0
 12
18.6875
 22
2.709146
 32
0.0
 13
18.6875
 23
2.709146
 33
0.0
  0
TEXT
  8
0
  6
CONTINUOUS
 62
     4
  5
140
 10
12.489573
 20
2.896646
 30
0.0
 40
0.75
  1
1'-0"
 41
0.666667
  7
ROMANS
 71
     4
  0
POINT
  8
DEFPOINTS
  6
BYBLOCK
 62
     0
 48
0.0
  5
141
 10
16.9375
 20
2.521646
 30
0.0
  0
POINT
  8
DEFPOINTS
  6
BYBLOCK
 62
     0
 48
0.0
  5
142
 10
17.9375
 20
5.104167
 30
0.0
  0
POINT
  8
DEFPOINTS
  6
BYBLOCK
 62
     0
 48
0.0
  5
143
 10
16.9375
 20
5.104167
 30
0.0
  0
POINT
  8
DEFPOINTS
  6
BYBLOCK
 62
     0
 48
0.0
  5
144
 10
13.651036
 20
2.896646
 30
0.0
  0
ENDBLK
  8
0
  6
CONTINUOUS
 62
     4
  5
145
  0
BLOCK
  8
0
  6
CONTINUOUS
 62
     4
  5
148
  2
*D12
 70
     1
 10
0.0
 20
0.0
 30
0.0
  3
*N12
  0
LINE
  8
0
  6
CONTINUOUS
 62
     4
  5
149
 10
5.0
 20
-8.375
 30
0.0
 11
5.0
 21
-12.186229
 31
0.0
  0
LINE
  8
0
  6
CONTINUOUS
 62
     4
  5
14A
 10
6.104167
 20
-7.270833
 30
0.0
 11
6.104167
 21
-12.186229
 31
0.0
  0
LINE
  8
0
  6
CONTINUOUS
 62
     4
  5
14B
 10
-0.197927
 20
-11.811229
 30
0.0
 11
5.0
 21
-11.811229
 31
0.0
  0
LINE
  8
0
  6
CONTINUOUS
 62
     4
  5
14C
 10
7.854167
 20
-11.811229
 30
0.0
 11
6.104167
 21
-11.811229
 31
0.0
  0
SOLID
  8
0
  6
CONTINUOUS
 62
     4
  5
14D
 10
4.25
 20
-11.623729
 30
0.0
 11
5.0
 21
-11.811229
 31
0.0
 12
4.25
 22
-11.998729
 32
0.0
 13
4.25
 23
-11.998729
 33
0.0
  0
SOLID
  8
0
  6
CONTINUOUS
 62
     4
  5
14E
 10
6.854167
 20
-11.998729
 30
0.0
 11
6.104167
 21
-11.811229
 31
0.0
 12
6.854167
 22
-11.623729
 32
0.0
 13
6.854167
 23
-11.623729
 33
0.0
  0
TEXT
  8
0
  6
CONTINUOUS
 62
     4
  5
14F
 10
-0.197927
 20
-11.436229
 30
0.0
 40
0.75
  1
1'-1 1/4 "
 41
0.666667
  7
ROMANS
 71
     4
  0
POINT
  8
DEFPOINTS
  6
BYBLOCK
 62
     0
 48
0.0
  5
150
 10
5.0
 20
-11.811229
 30
0.0
  0
POINT
  8
DEFPOINTS
  6
BYBLOCK
 62
     0
 48
0.0
  5
151
 10
6.104167
 20
-6.895833
 30
0.0
  0
POINT
  8
DEFPOINTS
  6
BYBLOCK
 62
     0
 48
0.0
  5
152
 10
5.0
 20
-8.0
 30
0.0
  0
POINT
  8
DEFPOINTS
  6
BYBLOCK
 62
     0
 48
0.0
  5
153
 10
1.338536
 20
-11.436229
 30
0.0
  0
ENDBLK
  8
0
  6
CONTINUOUS
 62
     4
  5
154
  0
BLOCK
  8
0
  6
CONTINUOUS
 62
     4
  5
157
  2
*D13
 70
     1
 10
0.0
 20
0.0
 30
0.0
  3
*N13
  0
LINE
  8
0
  6
CONTINUOUS
 62
     4
  5
158
 10
17.9375
 20
5.8125
 30
0.0
 11
17.9375
 21
12.482906
 31
0.0
  0
LINE
  8
0
  6
CONTINUOUS
 62
     4
  5
159
 10
18.270833
 20
5.8125
 30
0.0
 11
18.270833
 21
12.482906
 31
0.0
  0
LINE
  8
0
  6
CONTINUOUS
 62
     4
  5
15A
 10
14.989573
 20
12.107906
 30
0.0
 11
17.9375
 21
12.107906
 31
0.0
  0
LINE
  8
0
  6
CONTINUOUS
 62
     4
  5
15B
 10
20.020833
 20
12.107906
 30
0.0
 11
18.270833
 21
12.107906
 31
0.0
  0
SOLID
  8
0
  6
CONTINUOUS
 62
     4
  5
15C
 10
17.1875
 20
12.295406
 30
0.0
 11
17.9375
 21
12.107906
 31
0.0
 12
17.1875
 22
11.920406
 32
0.0
 13
17.1875
 23
11.920406
 33
0.0
  0
SOLID
  8
0
  6
CONTINUOUS
 62
     4
  5
15D
 10
19.020833
 20
11.920406
 30
0.0
 11
18.270833
 21
12.107906
 31
0.0
 12
19.020833
 22
12.295406
 32
0.0
 13
19.020833
 23
12.295406
 33
0.0
  0
TEXT
  8
0
  6
CONTINUOUS
 62
     4
  5
15E
 10
14.989573
 20
12.482906
 30
0.0
 40
0.75
  1
4"
 41
0.666667
  7
ROMANS
  0
POINT
  8
DEFPOINTS
  6
BYBLOCK
 62
     0
 48
0.0
  5
15F
 10
17.9375
 20
12.107906
 30
0.0
  0
POINT
  8
DEFPOINTS
  6
BYBLOCK
 62
     0
 48
0.0
  5
160
 10
18.270833
 20
5.4375
 30
0.0
  0
POINT
  8
DEFPOINTS
  6
BYBLOCK
 62
     0
 48
0.0
  5
161
 10
17.9375
 20
5.4375
 30
0.0
  0
POINT
  8
DEFPOINTS
  6
BYBLOCK
 62
     0
 48
0.0
  5
162
 10
15.401036
 20
12.482906
 30
0.0
  0
ENDBLK
  8
0
  6
CONTINUOUS
 62
     4
  5
163
  0
BLOCK
  8
0
  6
CONTINUOUS
 62
     4
  5
166
  2
*D14
 70
     1
 10
0.0
 20
0.0
 30
0.0
  3
*N14
  0
LINE
  8
0
  6
CONTINUOUS
 62
     4
  5
167
 10
37.634323
 20
5.726188
 30
0.0
 11
36.15699
 21
7.20351
 31
0.0
  0
LINE
  8
0
  6
CONTINUOUS
 62
     4
  5
168
 10
36.632583
 20
4.724437
 30
0.0
 11
35.15525
 21
6.20176
 31
0.0
  0
LINE
  8
0
  6
CONTINUOUS
 62
     4
  5
169
 10
39.567292
 20
10.083521
 30
0.0
 11
36.422156
 21
6.938344
 31
0.0
  0
LINE
  8
0
  6
CONTINUOUS
 62
     4
  5
16A
 10
34.182979
 20
4.699146
 30
0.0
 11
35.420417
 21
5.936594
 31
0.0
  0
SOLID
  8
0
  6
CONTINUOUS
 62
     4
  5
16B
 10
37.085062
 20
7.336094
 30
0.0
 11
36.422156
 21
6.938344
 31
0.0
 12
36.819896
 22
7.60126
 32
0.0
 13
36.819896
 23
7.60126
 33
0.0
  0
SOLID
  8
0
  6
CONTINUOUS
 62
     4
  5
16C
 10
34.7575
 20
5.538844
 30
0.0
 11
35.420417
 21
5.936594
 31
0.0
 12
35.022667
 22
5.273677
 32
0.0
 13
35.022667
 23
5.273677
 33
0.0
  0
TEXT
  8
0
  6
CONTINUOUS
 62
     4
  5
16D
 10
37.659583
 20
8.706115
 30
0.0
 40
0.75
  1
1'-5"
 50
134.999702
 41
0.666667
  7
ROMANS
 71
     2
  0
POINT
  8
DEFPOINTS
  6
BYBLOCK
 62
     0
 48
0.0
  5
16E
 10
36.422152
 20
6.938343
 30
0.0
  0
POINT
  8
DEFPOINTS
  6
BYBLOCK
 62
     0
 48
0.0
  5
16F
 10
36.897747
 20
4.459274
 30
0.0
  0
POINT
  8
DEFPOINTS
  6
BYBLOCK
 62
     0
 48
0.0
  5
170
 10
37.89949
 20
5.461021
 30
0.0
  0
POINT
  8
DEFPOINTS
  6
BYBLOCK
 62
     0
 48
0.0
  5
171
 10
38.480858
 20
9.527398
 30
0.0
  0
ENDBLK
  8
0
  6
CONTINUOUS
 62
     4
  5
172
  0
BLOCK
  8
0
  6
CONTINUOUS
 62
     4
  5
175
  2
*D15
 70
     1
 10
0.0
 20
0.0
 30
0.0
  3
*N15
  0
LINE
  8
0
  6
CONTINUOUS
 62
     4
  5
176
 10
38.164656
 20
5.726188
 30
0.0
 11
41.689969
 21
9.2515
 31
0.0
  0
LINE
  8
0
  6
CONTINUOUS
 62
     4
  5
177
 10
29.679375
 20
14.211469
 30
0.0
 11
33.204687
 21
17.736781
 31
0.0
  0
LINE
  8
0
  6
CONTINUOUS
 62
     4
  5
178
 10
41.424802
 20
8.986333
 30
0.0
 11
32.939521
 21
17.471615
 31
0.0
  0
SOLID
  8
0
  6
CONTINUOUS
 62
     4
  5
179
 10
41.027063
 20
9.64925
 30
0.0
 11
41.424802
 21
8.986333
 31
0.0
 12
40.761896
 22
9.384083
 32
0.0
 13
40.761896
 23
9.384083
 33
0.0
  0
SOLID
  8
0
  6
CONTINUOUS
 62
     4
  5
17A
 10
33.337271
 20
16.808708
 30
0.0
 11
32.939521
 21
17.471615
 31
0.0
 12
33.602438
 22
17.073875
 32
0.0
 13
33.602438
 23
17.073875
 33
0.0
  0
TEXT
  8
0
  6
CONTINUOUS
 62
     4
  5
17B
 10
36.449281
 20
14.492198
 30
0.0
 40
0.75
  1
12'-0"
 50
225.0
 41
0.666667
  7
ROMANS
 71
     2
  0
POINT
  8
DEFPOINTS
  6
BYBLOCK
 62
     0
 48
0.0
  5
17C
 10
41.424807
 20
8.986339
 30
0.0
  0
POINT
  8
DEFPOINTS
  6
BYBLOCK
 62
     0
 48
0.0
  5
17D
 10
29.414208
 20
13.946302
 30
0.0
  0
POINT
  8
DEFPOINTS
  6
BYBLOCK
 62
     0
 48
0.0
  5
17E
 10
37.89949
 20
5.461021
 30
0.0
  0
POINT
  8
DEFPOINTS
  6
BYBLOCK
 62
     0
 48
0.0
  5
17F
 10
37.447337
 20
13.494142
 30
0.0
  0
ENDBLK
  8
0
  6
CONTINUOUS
 62
     4
  5
180
  0
BLOCK
  8
0
  6
CONTINUOUS
 62
     4
  5
191
  2
*D16
 70
     1
 10
0.0
 20
0.0
 30
0.0
  3
*N16
  0
LINE
  8
0
  6
CONTINUOUS
 62
     4
  5
192
 10
45.520833
 20
19.0625
 30
0.0
 11
43.270167
 21
19.0625
 31
0.0
  0
LINE
  8
0
  6
CONTINUOUS
 62
     4
  5
193
 10
45.520833
 20
29.0625
 30
0.0
 11
43.270167
 21
29.0625
 31
0.0
  0
LINE
  8
0
  6
CONTINUOUS
 62
     4
  5
194
 10
43.645167
 20
19.0625
 30
0.0
 11
43.645167
 21
29.0625
 31
0.0
  0
SOLID
  8
0
  6
CONTINUOUS
 62
     4
  5
195
 10
43.832667
 20
19.8125
 30
0.0
 11
43.645167
 21
19.0625
 31
0.0
 12
43.457667
 22
19.8125
 32
0.0
 13
43.457667
 23
19.8125
 33
0.0
  0
SOLID
  8
0
  6
CONTINUOUS
 62
     4
  5
196
 10
43.457667
 20
28.3125
 30
0.0
 11
43.645167
 21
29.0625
 31
0.0
 12
43.832667
 22
28.3125
 32
0.0
 13
43.832667
 23
28.3125
 33
0.0
  0
TEXT
  8
0
  6
CONTINUOUS
 62
     4
  5
197
 10
43.270167
 20
22.651042
 30
0.0
 40
0.75
  1
10'-0"
 50
90.0
 41
0.666667
  7
ROMANS
  0
POINT
  8
DEFPOINTS
  6
BYBLOCK
 62
     0
 48
0.0
  5
198
 10
43.645167
 20
19.0625
 30
0.0
  0
POINT
  8
DEFPOINTS
  6
BYBLOCK
 62
     0
 48
0.0
  5
199
 10
45.895833
 20
29.0625
 30
0.0
  0
POINT
  8
DEFPOINTS
  6
BYBLOCK
 62
     0
 48
0.0
  5
19A
 10
45.895833
 20
19.0625
 30
0.0
  0
POINT
  8
DEFPOINTS
  6
BYBLOCK
 62
     0
 48
0.0
  5
19B
 10
43.270167
 20
24.062505
 30
0.0
  0
ENDBLK
  8
0
  6
CONTINUOUS
 62
     4
  5
19C
  0
BLOCK
  8
0
  6
CONTINUOUS
 62
     4
  5
19F
  2
*D17
 70
     1
 10
0.0
 20
0.0
 30
0.0
  3
*N17
  0
LINE
  8
0
  6
CONTINUOUS
 62
     4
  5
1A0
 10
45.520833
 20
39.0625
 30
0.0
 11
43.270167
 21
39.0625
 31
0.0
  0
LINE
  8
0
  6
CONTINUOUS
 62
     4
  5
1A1
 10
43.645167
 20
29.0625
 30
0.0
 11
43.645167
 21
39.0625
 31
0.0
  0
SOLID
  8
0
  6
CONTINUOUS
 62
     4
  5
1A2
 10
43.832667
 20
29.8125
 30
0.0
 11
43.645167
 21
29.0625
 31
0.0
 12
43.457667
 22
29.8125
 32
0.0
 13
43.457667
 23
29.8125
 33
0.0
  0
SOLID
  8
0
  6
CONTINUOUS
 62
     4
  5
1A3
 10
43.457667
 20
38.3125
 30
0.0
 11
43.645167
 21
39.0625
 31
0.0
 12
43.832667
 22
38.3125
 32
0.0
 13
43.832667
 23
38.3125
 33
0.0
  0
TEXT
  8
0
  6
CONTINUOUS
 62
     4
  5
1A4
 10
43.270167
 20
32.651042
 30
0.0
 40
0.75
  1
10'-0"
 50
90.0
 41
0.666667
  7
ROMANS
  0
POINT
  8
DEFPOINTS
  6
BYBLOCK
 62
     0
 48
0.0
  5
1A5
 10
43.645167
 20
29.0625
 30
0.0
  0
POINT
  8
DEFPOINTS
  6
BYBLOCK
 62
     0
 48
0.0
  5
1A6
 10
45.895833
 20
39.0625
 30
0.0
  0
POINT
  8
DEFPOINTS
  6
BYBLOCK
 62
     0
 48
0.0
  5
1A7
 10
45.895833
 20
29.0625
 30
0.0
  0
POINT
  8
DEFPOINTS
  6
BYBLOCK
 62
     0
 48
0.0
  5
1A8
 10
43.270167
 20
34.062505
 30
0.0
  0
ENDBLK
  8
0
  6
CONTINUOUS
 62
     4
  5
1A9
  0
BLOCK
  8
0
  6
CONTINUOUS
 62
     4
  5
1AC
  2
*D18
 70
     1
 10
0.0
 20
0.0
 30
0.0
  3
*N18
  0
LINE
  8
0
  6
CONTINUOUS
 62
     4
  5
1AD
 10
45.520833
 20
50.895833
 30
0.0
 11
43.270167
 21
50.895833
 31
0.0
  0
LINE
  8
0
  6
CONTINUOUS
 62
     4
  5
1AE
 10
43.645167
 20
39.0625
 30
0.0
 11
43.645167
 21
50.895833
 31
0.0
  0
SOLID
  8
0
  6
CONTINUOUS
 62
     4
  5
1AF
 10
43.832667
 20
39.8125
 30
0.0
 11
43.645167
 21
39.0625
 31
0.0
 12
43.457667
 22
39.8125
 32
0.0
 13
43.457667
 23
39.8125
 33
0.0
  0
SOLID
  8
0
  6
CONTINUOUS
 62
     4
  5
1B0
 10
43.457667
 20
50.145833
 30
0.0
 11
43.645167
 21
50.895833
 31
0.0
 12
43.832667
 22
50.145833
 32
0.0
 13
43.832667
 23
50.145833
 33
0.0
  0
TEXT
  8
0
  6
CONTINUOUS
 62
     4
  5
1B1
 10
43.270167
 20
40.849229
 30
0.0
 40
0.75
  1
11'-10"
 50
90.0
 41
0.666667
  7
ROMANS
  0
POINT
  8
DEFPOINTS
  6
BYBLOCK
 62
     0
 48
0.0
  5
1B2
 10
43.645167
 20
39.0625
 30
0.0
  0
POINT
  8
DEFPOINTS
  6
BYBLOCK
 62
     0
 48
0.0
  5
1B3
 10
45.895833
 20
50.895833
 30
0.0
  0
POINT
  8
DEFPOINTS
  6
BYBLOCK
 62
     0
 48
0.0
  5
1B4
 10
45.895833
 20
39.0625
 30
0.0
  0
POINT
  8
DEFPOINTS
  6
BYBLOCK
 62
     0
 48
0.0
  5
1B5
 10
43.270167
 20
42.510693
 30
0.0
  0
ENDBLK
  8
0
  6
CONTINUOUS
 62
     4
  5
1B6
  0
BLOCK
  8
0
  6
CONTINUOUS
 62
     4
  5
1B9
  2
*D19
 70
     1
 10
0.0
 20
0.0
 30
0.0
  3
*N19
  0
LINE
  8
0
  6
CONTINUOUS
 62
     4
  5
1BA
 10
45.895833
 20
38.520833
 30
0.0
 11
45.895833
 21
36.082687
 31
0.0
  0
LINE
  8
0
  6
CONTINUOUS
 62
     4
  5
1BB
 10
33.895833
 20
38.520833
 30
0.0
 11
33.895833
 21
36.082687
 31
0.0
  0
LINE
  8
0
  6
CONTINUOUS
 62
     4
  5
1BC
 10
45.895833
 20
36.457687
 30
0.0
 11
33.895833
 21
36.457687
 31
0.0
  0
SOLID
  8
0
  6
CONTINUOUS
 62
     4
  5
1BD
 10
45.145833
 20
36.645187
 30
0.0
 11
45.895833
 21
36.457687
 31
0.0
 12
45.145833
 22
36.270187
 32
0.0
 13
45.145833
 23
36.270187
 33
0.0
  0
SOLID
  8
0
  6
CONTINUOUS
 62
     4
  5
1BE
 10
34.645833
 20
36.270187
 30
0.0
 11
33.895833
 21
36.457687
 31
0.0
 12
34.645833
 22
36.645187
 32
0.0
 13
34.645833
 23
36.645187
 33
0.0
  0
TEXT
  8
0
  6
CONTINUOUS
 62
     4
  5
1BF
 10
38.484365
 20
36.832687
 30
0.0
 40
0.75
  1
12'-0"
 50
180.0
 41
0.666667
  7
ROMANS
 71
     6
  0
POINT
  8
DEFPOINTS
  6
BYBLOCK
 62
     0
 48
0.0
  5
1C0
 10
45.895833
 20
36.457687
 30
0.0
  0
POINT
  8
DEFPOINTS
  6
BYBLOCK
 62
     0
 48
0.0
  5
1C1
 10
33.895833
 20
38.895833
 30
0.0
  0
POINT
  8
DEFPOINTS
  6
BYBLOCK
 62
     0
 48
0.0
  5
1C2
 10
45.895833
 20
38.895833
 30
0.0
  0
POINT
  8
DEFPOINTS
  6
BYBLOCK
 62
     0
 48
0.0
  5
1C3
 10
39.895828
 20
36.832687
 30
0.0
  0
ENDBLK
  8
0
  6
CONTINUOUS
 62
     4
  5
1C4
  0
BLOCK
  8
0
  6
CONTINUOUS
 62
     4
  5
1C7
  2
*D20
 70
     1
 10
0.0
 20
0.0
 30
0.0
  3
*N20
  0
LINE
  8
0
  6
CONTINUOUS
 62
     4
  5
1C8
 10
45.895833
 20
50.520833
 30
0.0
 11
45.895833
 21
46.785458
 31
0.0
  0
LINE
  8
0
  6
CONTINUOUS
 62
     4
  5
1C9
 10
18.104167
 20
50.520833
 30
0.0
 11
18.104167
 21
46.785458
 31
0.0
  0
LINE
  8
0
  6
CONTINUOUS
 62
     4
  5
1CA
 10
45.895833
 20
47.160458
 30
0.0
 11
18.104167
 21
47.160458
 31
0.0
  0
SOLID
  8
0
  6
CONTINUOUS
 62
     4
  5
1CB
 10
45.145833
 20
47.347958
 30
0.0
 11
45.895833
 21
47.160458
 31
0.0
 12
45.145833
 22
46.972958
 32
0.0
 13
45.145833
 23
46.972958
 33
0.0
  0
SOLID
  8
0
  6
CONTINUOUS
 62
     4
  5
1CC
 10
18.854167
 20
46.972958
 30
0.0
 11
18.104167
 21
47.160458
 31
0.0
 12
18.854167
 22
47.347958
 32
0.0
 13
18.854167
 23
47.347958
 33
0.0
  0
TEXT
  8
0
  6
CONTINUOUS
 62
     4
  5
1CD
 10
30.213531
 20
47.535458
 30
0.0
 40
0.75
  1
27'-9 1/2 "
 50
180.0
 41
0.666667
  7
ROMANS
 71
     6
  0
POINT
  8
DEFPOINTS
  6
BYBLOCK
 62
     0
 48
0.0
  5
1CE
 10
45.895833
 20
47.160458
 30
0.0
  0
POINT
  8
DEFPOINTS
  6
BYBLOCK
 62
     0
 48
0.0
  5
1CF
 10
18.104167
 20
50.895833
 30
0.0
  0
POINT
  8
DEFPOINTS
  6
BYBLOCK
 62
     0
 48
0.0
  5
1D0
 10
45.895833
 20
50.895833
 30
0.0
  0
POINT
  8
DEFPOINTS
  6
BYBLOCK
 62
     0
 48
0.0
  5
1D1
 10
31.999995
 20
47.535458
 30
0.0
  0
ENDBLK
  8
0
  6
CONTINUOUS
 62
     4
  5
1D2
  0
BLOCK
  8
0
  6
CONTINUOUS
 62
     4
  5
1D5
  2
*D21
 70
     1
 10
0.0
 20
0.0
 30
0.0
  3
*N21
  0
LINE
  8
0
  6
CONTINUOUS
 62
     4
  5
1D6
 10
6.104167
 20
50.520833
 30
0.0
 11
6.104167
 21
46.785458
 31
0.0
  0
LINE
  8
0
  6
CONTINUOUS
 62
     4
  5
1D7
 10
18.104167
 20
47.160458
 30
0.0
 11
6.104167
 21
47.160458
 31
0.0
  0
SOLID
  8
0
  6
CONTINUOUS
 62
     4
  5
1D8
 10
17.354167
 20
47.347958
 30
0.0
 11
18.104167
 21
47.160458
 31
0.0
 12
17.354167
 22
46.972958
 32
0.0
 13
17.354167
 23
46.972958
 33
0.0
  0
SOLID
  8
0
  6
CONTINUOUS
 62
     4
  5
1D9
 10
6.854167
 20
46.972958
 30
0.0
 11
6.104167
 21
47.160458
 31
0.0
 12
6.854167
 22
47.347958
 32
0.0
 13
6.854167
 23
47.347958
 33
0.0
  0
TEXT
  8
0
  6
CONTINUOUS
 62
     4
  5
1DA
 10
10.692698
 20
47.535458
 30
0.0
 40
0.75
  1
12'-0"
 50
180.0
 41
0.666667
  7
ROMANS
 71
     6
  0
POINT
  8
DEFPOINTS
  6
BYBLOCK
 62
     0
 48
0.0
  5
1DB
 10
18.104167
 20
47.160458
 30
0.0
  0
POINT
  8
DEFPOINTS
  6
BYBLOCK
 62
     0
 48
0.0
  5
1DC
 10
6.104167
 20
50.895833
 30
0.0
  0
POINT
  8
DEFPOINTS
  6
BYBLOCK
 62
     0
 48
0.0
  5
1DD
 10
18.104167
 20
50.895833
 30
0.0
  0
POINT
  8
DEFPOINTS
  6
BYBLOCK
 62
     0
 48
0.0
  5
1DE
 10
12.104161
 20
47.535458
 30
0.0
  0
ENDBLK
  8
0
  6
CONTINUOUS
 62
     4
  5
1DF
  0
BLOCK
  8
0
  6
CONTINUOUS
 62
     4
  5
1E2
  2
*D22
 70
     1
 10
0.0
 20
0.0
 30
0.0
  3
*N22
  0
LINE
  8
0
  6
CONTINUOUS
 62
     4
  5
1E3
 10
6.479167
 20
50.895833
 30
0.0
 11
8.958885
 21
50.895833
 31
0.0
  0
LINE
  8
0
  6
CONTINUOUS
 62
     4
  5
1E4
 10
6.479167
 20
23.270833
 30
0.0
 11
8.958885
 21
23.270833
 31
0.0
  0
LINE
  8
0
  6
CONTINUOUS
 62
     4
  5
1E5
 10
8.583885
 20
50.895833
 30
0.0
 11
8.583885
 21
23.270833
 31
0.0
  0
SOLID
  8
0
  6
CONTINUOUS
 62
     4
  5
1E6
 10
8.396385
 20
50.145833
 30
0.0
 11
8.583885
 21
50.895833
 31
0.0
 12
8.771385
 22
50.145833
 32
0.0
 13
8.771385
 23
50.145833
 33
0.0
  0
SOLID
  8
0
  6
CONTINUOUS
 62
     4
  5
1E7
 10
8.771385
 20
24.020833
 30
0.0
 11
8.583885
 21
23.270833
 31
0.0
 12
8.396385
 22
24.020833
 32
0.0
 13
8.396385
 23
24.020833
 33
0.0
  0
TEXT
  8
0
  6
CONTINUOUS
 62
     4
  5
1E8
 10
8.208885
 20
35.296865
 30
0.0
 40
0.75
  1
27'-7 1/2 "
 50
270.0
 41
0.666667
  7
ROMANS
 71
     6
  0
POINT
  8
DEFPOINTS
  6
BYBLOCK
 62
     0
 48
0.0
  5
1E9
 10
8.583885
 20
50.895833
 30
0.0
  0
POINT
  8
DEFPOINTS
  6
BYBLOCK
 62
     0
 48
0.0
  5
1EA
 10
6.104167
 20
23.270833
 30
0.0
  0
POINT
  8
DEFPOINTS
  6
BYBLOCK
 62
     0
 48
0.0
  5
1EB
 10
6.104167
 20
50.895833
 30
0.0
  0
POINT
  8
DEFPOINTS
  6
BYBLOCK
 62
     0
 48
0.0
  5
1EC
 10
8.208885
 20
37.083328
 30
0.0
  0
ENDBLK
  8
0
  6
CONTINUOUS
 62
     4
  5
1ED
  0
BLOCK
  8
0
  6
CONTINUOUS
 62
     4
  5
1F0
  2
*D23
 70
     1
 10
0.0
 20
0.0
 30
0.0
  3
*N23
  0
LINE
  8
0
  6
CONTINUOUS
 62
     4
  5
1F1
 10
6.479167
 20
5.270833
 30
0.0
 11
8.958885
 21
5.270833
 31
0.0
  0
LINE
  8
0
  6
CONTINUOUS
 62
     4
  5
1F2
 10
8.583885
 20
23.270833
 30
0.0
 11
8.583885
 21
5.270833
 31
0.0
  0
SOLID
  8
0
  6
CONTINUOUS
 62
     4
  5
1F3
 10
8.396385
 20
22.520833
 30
0.0
 11
8.583885
 21
23.270833
 31
0.0
 12
8.771385
 22
22.520833
 32
0.0
 13
8.771385
 23
22.520833
 33
0.0
  0
SOLID
  8
0
  6
CONTINUOUS
 62
     4
  5
1F4
 10
8.771385
 20
6.020833
 30
0.0
 11
8.583885
 21
5.270833
 31
0.0
 12
8.396385
 22
6.020833
 32
0.0
 13
8.396385
 23
6.020833
 33
0.0
  0
TEXT
  8
0
  6
CONTINUOUS
 62
     4
  5
1F5
 10
8.208885
 20
12.859365
 30
0.0
 40
0.75
  1
18'-0"
 50
270.0
 41
0.666667
  7
ROMANS
 71
     6
  0
POINT
  8
DEFPOINTS
  6
BYBLOCK
 62
     0
 48
0.0
  5
1F6
 10
8.583885
 20
23.270833
 30
0.0
  0
POINT
  8
DEFPOINTS
  6
BYBLOCK
 62
     0
 48
0.0
  5
1F7
 10
6.104167
 20
5.270833
 30
0.0
  0
POINT
  8
DEFPOINTS
  6
BYBLOCK
 62
     0
 48
0.0
  5
1F8
 10
6.104167
 20
23.270833
 30
0.0
  0
POINT
  8
DEFPOINTS
  6
BYBLOCK
 62
     0
 48
0.0
  5
1F9
 10
8.208885
 20
14.270828
 30
0.0
  0
ENDBLK
  8
0
  6
CONTINUOUS
 62
     4
  5
1FA
  0
BLOCK
  8
0
  6
CONTINUOUS
 62
     4
  5
1FD
  2
*D24
 70
     1
 10
0.0
 20
0.0
 30
0.0
  3
*N24
  0
LINE
  8
0
  6
CONTINUOUS
 62
     4
  5
1FE
 10
6.479167
 20
-6.895833
 30
0.0
 11
8.958885
 21
-6.895833
 31
0.0
  0
LINE
  8
0
  6
CONTINUOUS
 62
     4
  5
1FF
 10
8.583885
 20
5.270833
 30
0.0
 11
8.583885
 21
-6.895833
 31
0.0
  0
SOLID
  8
0
  6
CONTINUOUS
 62
     4
  5
200
 10
8.396385
 20
4.520833
 30
0.0
 11
8.583885
 21
5.270833
 31
0.0
 12
8.771385
 22
4.520833
 32
0.0
 13
8.771385
 23
4.520833
 33
0.0
  0
SOLID
  8
0
  6
CONTINUOUS
 62
     4
  5
201
 10
8.771385
 20
-6.145833
 30
0.0
 11
8.583885
 21
-6.895833
 31
0.0
 12
8.396385
 22
-6.145833
 32
0.0
 13
8.396385
 23
-6.145833
 33
0.0
  0
TEXT
  8
0
  6
CONTINUOUS
 62
     4
  5
202
 10
8.208885
 20
-2.223969
 30
0.0
 40
0.75
  1
12'-2"
 50
270.0
 41
0.666667
  7
ROMANS
 71
     6
  0
POINT
  8
DEFPOINTS
  6
BYBLOCK
 62
     0
 48
0.0
  5
203
 10
8.583885
 20
5.270833
 30
0.0
  0
POINT
  8
DEFPOINTS
  6
BYBLOCK
 62
     0
 48
0.0
  5
204
 10
6.104167
 20
-6.895833
 30
0.0
  0
POINT
  8
DEFPOINTS
  6
BYBLOCK
 62
     0
 48
0.0
  5
205
 10
6.104167
 20
5.270833
 30
0.0
  0
POINT
  8
DEFPOINTS
  6
BYBLOCK
 62
     0
 48
0.0
  5
206
 10
8.208885
 20
-0.812505
 30
0.0
  0
ENDBLK
  8
0
  6
CONTINUOUS
 62
     4
  5
207
  0
ENDSEC
  0
SECTION
  2
ENTITIES
  0
LINE
  8
DRYWALL
  6
DASHDOT
 62
     5
  5
29
 10
37.89949
 20
5.461021
 30
0.0
 11
29.414208
 21
13.946302
 31
0.0
  0
LINE
  8
DRYWALL
  6
CONTINUOUS
 62
     2
  5
2A
 10
37.781635
 20
5.343167
 30
0.0
 11
29.17851
 21
13.946302
 31
0.0
  0
LINE
  8
DRYWALL
  6
CONTINUOUS
 62
     2
  5
2B
 10
38.017344
 20
5.578875
 30
0.0
 11
29.649906
 21
13.946302
 31
0.0
  0
LINE
  8
DRYWALL
  6
DASHDOT
 62
     5
  5
2C
 10
33.539
 20
1.100531
 30
0.0
 11
25.053719
 21
9.585812
 31
0.0
  0
LINE
  8
DRYWALL
  6
CONTINUOUS
 62
     2
  5
2D
 10
33.421146
 20
0.982677
 30
0.0
 11
25.053719
 21
9.350115
 31
0.0
  0
LINE
  8
DRYWALL
  6
CONTINUOUS
 62
     2
  5
2E
 10
33.656854
 20
1.218385
 30
0.0
 11
25.053719
 21
9.82151
 31
0.0
  0
LINE
  8
DRYWALL
  6
DASHDOT
 62
     5
  5
2F
 10
45.895833
 20
29.0625
 30
0.0
 11
33.895833
 21
29.0625
 31
0.0
  0
LINE
  8
DRYWALL
  6
CONTINUOUS
 62
     2
  5
30
 10
45.895833
 20
28.895833
 30
0.0
 11
34.0625
 21
28.895833
 31
0.0
  0
LINE
  8
DRYWALL
  6
CONTINUOUS
 62
     2
  5
31
 10
45.895833
 20
29.229167
 30
0.0
 11
34.0625
 21
29.229167
 31
0.0
  0
LINE
  8
DRYWALL
  6
DASHDOT
 62
     5
  5
32
 10
6.104167
 20
23.270833
 30
0.0
 11
18.104167
 21
23.270833
 31
0.0
  0
LINE
  8
DRYWALL
  6
CONTINUOUS
 62
     2
  5
33
 10
6.104167
 20
23.4375
 30
0.0
 11
17.9375
 21
23.4375
 31
0.0
  0
LINE
  8
DRYWALL
  6
CONTINUOUS
 62
     2
  5
34
 10
6.104167
 20
23.104167
 30
0.0
 11
17.9375
 21
23.104167
 31
0.0
  0
POLYLINE
  8
EXTERIOR
  6
CONTINUOUS
 62
     2
  5
36
 66
     1
 10
0.0
 20
0.0
 30
0.0
  0
VERTEX
  8
EXTERIOR
  6
CONTINUOUS
 62
     2
  5
37
 10
47.0
 20
13.0
 30
0.0
  0
VERTEX
  8
EXTERIOR
  6
CONTINUOUS
 62
     2
  5
38
 10
47.0
 20
52.0
 30
0.0
  0
VERTEX
  8
EXTERIOR
  6
CONTINUOUS
 62
     2
  5
39
 10
5.0
 20
52.0
 30
0.0
  0
VERTEX
  8
EXTERIOR
  6
CONTINUOUS
 62
     2
  5
3A
 10
5.0
 20
-8.0
 30
0.0
  0
VERTEX
  8
EXTERIOR
  6
CONTINUOUS
 62
     2
  5
3B
 10
26.0
 20
-8.0
 30
0.0
  0
VERTEX
  8
EXTERIOR
  6
CONTINUOUS
 62
     2
  5
3C
 10
35.32149
 20
1.32149
 30
0.0
  0
SEQEND
  8
EXTERIOR
  6
CONTINUOUS
 62
     2
  5
3D
  0
LINE
  8
EXTERIOR
  6
CONTINUOUS
 62
     2
  5
3E
 10
37.67851
 20
3.67851
 30
0.0
 11
47.0
 21
13.0
 31
0.0
  0
POLYLINE
  8
EXTERIOR
  6
CONTINUOUS
 62
     2
  5
3F
 66
     1
 10
0.0
 20
0.0
 30
0.0
  0
VERTEX
  8
EXTERIOR
  6
CONTINUOUS
 62
     2
  5
40
 10
46.697917
 20
13.125125
 30
0.0
  0
VERTEX
  8
EXTERIOR
  6
CONTINUOUS
 62
     2
  5
41
 10
46.697917
 20
51.697917
 30
0.0
  0
VERTEX
  8
EXTERIOR
  6
CONTINUOUS
 62
     2
  5
42
 10
5.302083
 20
51.697917
 30
0.0
  0
VERTEX
  8
EXTERIOR
  6
CONTINUOUS
 62
     2
  5
43
 10
5.302083
 20
-7.697917
 30
0.0
  0
VERTEX
  8
EXTERIOR
  6
CONTINUOUS
 62
     2
  5
44
 10
25.874875
 20
-7.697917
 30
0.0
  0
VERTEX
  8
EXTERIOR
  6
CONTINUOUS
 62
     2
  5
45
 10
35.107885
 20
1.535104
 30
0.0
  0
SEQEND
  8
EXTERIOR
  6
CONTINUOUS
 62
     2
  5
46
  0
LINE
  8
EXTERIOR
  6
CONTINUOUS
 62
     2
  5
47
 10
37.464906
 20
3.892115
 30
0.0
 11
46.697917
 21
13.125125
 31
0.0
  0
POLYLINE
  8
EXTERIOR
  6
CONTINUOUS
 62
     2
  5
48
 66
     1
 10
0.0
 20
0.0
 30
0.0
  0
VERTEX
  8
EXTERIOR
  6
CONTINUOUS
 62
     2
  5
49
 10
46.53125
 20
13.194167
 30
0.0
  0
VERTEX
  8
EXTERIOR
  6
CONTINUOUS
 62
     2
  5
4A
 10
46.53125
 20
51.53125
 30
0.0
  0
VERTEX
  8
EXTERIOR
  6
CONTINUOUS
 62
     2
  5
4B
 10
5.46875
 20
51.53125
 30
0.0
  0
VERTEX
  8
EXTERIOR
  6
CONTINUOUS
 62
     2
  5
4C
 10
5.46875
 20
-7.53125
 30
0.0
  0
VERTEX
  8
EXTERIOR
  6
CONTINUOUS
 62
     2
  5
4D
 10
25.805833
 20
-7.53125
 30
0.0
  0
VERTEX
  8
EXTERIOR
  6
CONTINUOUS
 62
     2
  5
4E
 10
34.990042
 20
1.652948
 30
0.0
  0
SEQEND
  8
EXTERIOR
  6
CONTINUOUS
 62
     2
  5
4F
  0
LINE
  8
EXTERIOR
  6
CONTINUOUS
 62
     2
  5
50
 10
37.347052
 20
4.009969
 30
0.0
 11
46.53125
 21
13.194167
 31
0.0
  0
POLYLINE
  8
EXTERIOR
  6
CONTINUOUS
 62
     2
  5
51
 66
     1
 10
0.0
 20
0.0
 30
0.0
  0
VERTEX
  8
EXTERIOR
  6
CONTINUOUS
 62
     2
  5
52
 10
45.895833
 20
13.457365
 30
0.0
  0
VERTEX
  8
EXTERIOR
  6
CONTINUOUS
 62
     2
  5
53
 10
45.895833
 20
50.895833
 30
0.0
  0
VERTEX
  8
EXTERIOR
  6
CONTINUOUS
 62
     2
  5
54
 10
6.104167
 20
50.895833
 30
0.0
  0
VERTEX
  8
EXTERIOR
  6
CONTINUOUS
 62
     2
  5
55
 10
6.104167
 20
-6.895833
 30
0.0
  0
VERTEX
  8
EXTERIOR
  6
CONTINUOUS
 62
     2
  5
56
 10
25.542635
 20
-6.895833
 30
0.0
  0
VERTEX
  8
EXTERIOR
  6
CONTINUOUS
 62
     2
  5
57
 10
34.540729
 20
2.10226
 30
0.0
  0
SEQEND
  8
EXTERIOR
  6
CONTINUOUS
 62
     2
  5
58
  0
LINE
  8
EXTERIOR
  6
CONTINUOUS
 62
     2
  5
59
 10
36.89775
 20
4.459271
 30
0.0
 11
45.895833
 21
13.457365
 31
0.0
  0
LINE
  8
DRYWALL
  6
DASHDOT
 62
     5
  5
5A
 10
29.414208
 20
13.946302
 30
0.0
 11
30.239156
 21
14.77125
 31
0.0
  0
LINE
  8
DRYWALL
  6
DASHDOT
 62
     5
  5
5B
 10
32.596177
 20
17.128271
 30
0.0
 11
33.895833
 21
18.427927
 31
0.0
  0
LINE
  8
DRYWALL
  6
CONTINUOUS
 62
     2
  5
5C
 10
29.17851
 20
13.946302
 30
0.0
 11
30.121312
 21
14.889104
 31
0.0
  0
LINE
  8
DRYWALL
  6
CONTINUOUS
 62
     2
  5
5D
 10
32.478323
 20
17.246115
 30
0.0
 11
33.729167
 21
18.496958
 31
0.0
  0
LINE
  8
DRYWALL
  6
CONTINUOUS
 62
     2
  5
5E
 10
29.649906
 20
13.946302
 30
0.0
 11
30.35701
 21
14.653406
 31
0.0
  0
LINE
  8
DRYWALL
  6
CONTINUOUS
 62
     2
  5
5F
 10
32.714021
 20
17.010417
 30
0.0
 11
34.0625
 21
18.358896
 31
0.0
  0
LINE
  8
DRYWALL
  6
DASHDOT
 62
     5
  5
60
 10
45.895833
 20
39.0625
 30
0.0
 11
32.729167
 21
39.0625
 31
0.0
  0
LINE
  8
DRYWALL
  6
DASHDOT
 62
     5
  5
61
 10
29.395833
 20
39.0625
 30
0.0
 11
18.104167
 21
39.0625
 31
0.0
  0
LINE
  8
DRYWALL
  6
CONTINUOUS
 62
     2
  5
62
 10
45.895833
 20
38.895833
 30
0.0
 11
34.0625
 21
38.895833
 31
0.0
  0
LINE
  8
DRYWALL
  6
CONTINUOUS
 62
     2
  5
63
 10
33.729167
 20
38.895833
 30
0.0
 11
32.729167
 21
38.895833
 31
0.0
  0
LINE
  8
DRYWALL
  6
CONTINUOUS
 62
     2
  5
64
 10
29.395833
 20
38.895833
 30
0.0
 11
18.270833
 21
38.895833
 31
0.0
  0
LINE
  8
DRYWALL
  6
CONTINUOUS
 62
     2
  5
65
 10
45.895833
 20
39.229167
 30
0.0
 11
32.729167
 21
39.229167
 31
0.0
  0
LINE
  8
DRYWALL
  6
CONTINUOUS
 62
     2
  5
66
 10
29.395833
 20
39.229167
 30
0.0
 11
18.270833
 21
39.229167
 31
0.0
  0
LINE
  8
DRYWALL
  6
DASHDOT
 62
     5
  5
67
 10
18.104167
 20
50.895833
 30
0.0
 11
18.104167
 21
37.895833
 31
0.0
  0
LINE
  8
DRYWALL
  6
DASHDOT
 62
     5
  5
68
 10
18.104167
 20
34.5625
 30
0.0
 11
18.104167
 21
22.104167
 31
0.0
  0
LINE
  8
DRYWALL
  6
DASHDOT
 62
     5
  5
69
 10
18.104167
 20
18.770833
 30
0.0
 11
18.104167
 21
-6.895833
 31
0.0
  0
LINE
  8
DRYWALL
  6
CONTINUOUS
 62
     2
  5
6A
 10
18.270833
 20
50.895833
 30
0.0
 11
18.270833
 21
39.229167
 31
0.0
  0
LINE
  8
DRYWALL
  6
CONTINUOUS
 62
     2
  5
6B
 10
18.270833
 20
38.895833
 30
0.0
 11
18.270833
 21
37.895833
 31
0.0
  0
LINE
  8
DRYWALL
  6
CONTINUOUS
 62
     2
  5
6C
 10
18.270833
 20
34.5625
 30
0.0
 11
18.270833
 21
22.104167
 31
0.0
  0
LINE
  8
DRYWALL
  6
CONTINUOUS
 62
     2
  5
6D
 10
18.270833
 20
18.770833
 30
0.0
 11
18.270833
 21
5.4375
 31
0.0
  0
LINE
  8
DRYWALL
  6
CONTINUOUS
 62
     2
  5
6E
 10
18.270833
 20
5.104167
 30
0.0
 11
18.270833
 21
-6.895833
 31
0.0
  0
LINE
  8
DRYWALL
  6
CONTINUOUS
 62
     2
  5
6F
 10
17.9375
 20
50.895833
 30
0.0
 11
17.9375
 21
37.895833
 31
0.0
  0
LINE
  8
DRYWALL
  6
CONTINUOUS
 62
     2
  5
70
 10
17.9375
 20
34.5625
 30
0.0
 11
17.9375
 21
23.4375
 31
0.0
  0
LINE
  8
DRYWALL
  6
CONTINUOUS
 62
     2
  5
71
 10
17.9375
 20
23.104167
 30
0.0
 11
17.9375
 21
22.104167
 31
0.0
  0
LINE
  8
DRYWALL
  6
CONTINUOUS
 62
     2
  5
72
 10
17.9375
 20
18.770833
 30
0.0
 11
17.9375
 21
5.4375
 31
0.0
  0
LINE
  8
DRYWALL
  6
CONTINUOUS
 62
     2
  5
73
 10
17.9375
 20
5.104167
 30
0.0
 11
17.9375
 21
-6.895833
 31
0.0
  0
LINE
  8
DRYWALL
  6
DASHDOT
 62
     5
  5
74
 10
6.104167
 20
5.270833
 30
0.0
 11
13.604167
 21
5.270833
 31
0.0
  0
LINE
  8
DRYWALL
  6
DASHDOT
 62
     5
  5
75
 10
16.9375
 20
5.270833
 30
0.0
 11
20.73874
 21
5.270833
 31
0.0
  0
LINE
  8
DRYWALL
  6
CONTINUOUS
 62
     2
  5
76
 10
6.104167
 20
5.4375
 30
0.0
 11
13.604167
 21
5.4375
 31
0.0
  0
LINE
  8
DRYWALL
  6
CONTINUOUS
 62
     2
  5
77
 10
16.9375
 20
5.4375
 30
0.0
 11
17.9375
 21
5.4375
 31
0.0
  0
LINE
  8
DRYWALL
  6
CONTINUOUS
 62
     2
  5
78
 10
18.270833
 20
5.4375
 30
0.0
 11
20.669708
 21
5.4375
 31
0.0
  0
LINE
  8
DRYWALL
  6
CONTINUOUS
 62
     2
  5
79
 10
6.104167
 20
5.104167
 30
0.0
 11
13.604167
 21
5.104167
 31
0.0
  0
LINE
  8
DRYWALL
  6
CONTINUOUS
 62
     2
  5
7A
 10
16.9375
 20
5.104167
 30
0.0
 11
17.9375
 21
5.104167
 31
0.0
  0
LINE
  8
DRYWALL
  6
CONTINUOUS
 62
     2
  5
7B
 10
18.270833
 20
5.104167
 30
0.0
 11
20.807771
 21
5.104167
 31
0.0
  0
LINE
  8
DRYWALL
  6
DASHDOT
 62
     5
  5
7C
 10
20.73874
 20
5.270833
 30
0.0
 11
21.87174
 21
6.403833
 31
0.0
  0
LINE
  8
DRYWALL
  6
DASHDOT
 62
     5
  5
7D
 10
24.22875
 20
8.760844
 30
0.0
 11
25.053719
 21
9.585812
 31
0.0
  0
LINE
  8
DRYWALL
  6
CONTINUOUS
 62
     2
  5
7E
 10
20.669708
 20
5.4375
 30
0.0
 11
21.753885
 21
6.521687
 31
0.0
  0
LINE
  8
DRYWALL
  6
CONTINUOUS
 62
     2
  5
7F
 10
24.110906
 20
8.878698
 30
0.0
 11
25.053719
 21
9.82151
 31
0.0
  0
LINE
  8
DRYWALL
  6
CONTINUOUS
 62
     2
  5
80
 10
20.807771
 20
5.104167
 30
0.0
 11
21.989594
 21
6.285979
 31
0.0
  0
LINE
  8
DRYWALL
  6
CONTINUOUS
 62
     2
  5
81
 10
24.346604
 20
8.643
 30
0.0
 11
25.053719
 21
9.350115
 31
0.0
  0
INSERT
  8
DOORS
  6
CONTINUOUS
 62
     1
  5
9B
  2
DOOR
 10
30.35701
 20
14.653406
 30
0.0
 50
315.0
210
0.0
220
0.0
230
1.0
  0
INSERT
  8
DOORS
  6
CONTINUOUS
 62
     1
  5
9C
  2
DOOR
 10
34.0625
 20
30.229167
 30
0.0
210
0.0
220
0.0
230
1.0
  0
INSERT
  8
DOORS
  6
CONTINUOUS
 62
     1
  5
9D
  2
DOOR
 10
34.0625
 20
27.895833
 30
0.0
 42
-1.0
210
0.0
220
0.0
230
1.0
  0
INSERT
  8
DOORS
  6
CONTINUOUS
 62
     1
  5
9E
  2
DOOR
 10
32.729167
 20
39.229167
 30
0.0
 50
90.0
210
0.0
220
0.0
230
1.0
  0
INSERT
  8
DOORS
  6
CONTINUOUS
 62
     1
  5
9F
  2
DOOR
 10
17.9375
 20
37.895833
 30
0.0
 50
180.0
210
0.0
220
0.0
230
1.0
  0
INSERT
  8
DOORS
  6
CONTINUOUS
 62
     1
  5
A0
  2
DOOR
 10
17.9375
 20
22.104167
 30
0.0
 50
180.0
210
0.0
220
0.0
230
1.0
  0
INSERT
  8
DOORS
  6
CONTINUOUS
 62
     1
  5
A1
  2
DOOR
 10
16.9375
 20
5.43749
 30
0.0
 50
90.0
210
0.0
220
0.0
230
1.0
  0
INSERT
  8
DOORS
  6
CONTINUOUS
 62
     1
  5
A2
  2
DOOR
 10
24.346594
 20
8.643
 30
0.0
 42
-1.0
 50
315.0
210
0.0
220
0.0
230
1.0
  0
INSERT
  8
DOORS
  6
CONTINUOUS
 62
     1
  5
A3
  2
DOOR
 10
35.32149
 20
1.32149
 30
0.0
 50
315.0
210
0.0
220
0.0
230
1.0
  0
POLYLINE
  8
SLAB
  6
CONTINUOUS
 62
     1
  5
A5
 66
     1
 10
0.0
 20
0.0
 30
0.0
 70
     1
  0
VERTEX
  8
SLAB
  6
CONTINUOUS
 62
     1
  5
A6
 10
5.0
 20
-8.0
 30
0.0
  0
VERTEX
  8
SLAB
  6
CONTINUOUS
 62
     1
  5
A7
 10
47.0
 20
-8.0
 30
0.0
  0
VERTEX
  8
SLAB
  6
CONTINUOUS
 62
     1
  5
A8
 10
47.0
 20
52.0
 30
0.0
  0
VERTEX
  8
SLAB
  6
CONTINUOUS
 62
     1
  5
A9
 10
5.0
 20
52.0
 30
0.0
  0
SEQEND
  8
SLAB
  6
CONTINUOUS
 62
     1
  5
AA
  0
DIMENSION
  8
0
  6
CONTINUOUS
 62
     4
  5
BB
  2
*D1
 10
29.65818
 20
-11.65818
 30
0.0
 11
34.053762
 21
-6.732269
 31
0.0
 70
   129
 13
35.32149
 23
1.32149
 33
0.0
 14
26.0
 24
-8.0
 34
0.0
 50
-315.0
 51
-315.0
  3
MSADIM
  0
DIMENSION
  8
0
  6
CONTINUOUS
 62
     4
  5
CA
  2
*D2
 10
42.485741
 20
-1.12872
 30
0.0
 11
37.539675
 21
-5.54445
 31
0.0
 70
   129
 13
37.67851
 23
3.67851
 33
0.0
 14
35.32149
 24
1.32149
 34
0.0
 50
-315.0
 51
-315.0
  3
MSADIM
  0
DIMENSION
  8
0
  6
CONTINUOUS
 62
     4
  5
D7
  2
*D3
 10
42.485741
 20
-1.12872
 30
0.0
 11
45.732273
 21
4.946241
 31
0.0
 70
   129
 13
47.0
 23
13.0
 33
0.0
 14
37.67851
 24
3.67851
 34
0.0
 50
-315.0
 51
-315.0
  3
MSADIM
  0
DIMENSION
  8
0
  6
CONTINUOUS
 62
     4
  5
E5
  2
*D4
 10
5.0
 20
-14.881167
 30
0.0
 11
15.500005
 21
-14.506167
 31
0.0
 70
   128
 13
26.0
 23
-8.0
 33
0.0
 14
5.0
 24
-8.0
 34
0.0
  3
MSADIM
  0
DIMENSION
  8
0
  6
CONTINUOUS
 62
     4
  5
F2
  2
*D5
 10
26.0
 20
-14.881167
 30
0.0
 11
36.500005
 21
-14.506167
 31
0.0
 70
   128
 13
47.0
 23
-8.0
 33
0.0
 14
26.0
 24
-8.0
 34
0.0
  3
MSADIM
  0
DIMENSION
  8
0
  6
CONTINUOUS
 62
     4
  5
100
  2
*D6
 10
5.0
 20
-17.072896
 30
0.0
 11
26.000005
 21
-16.697896
 31
0.0
 70
   128
 13
47.0
 23
-8.0
 33
0.0
 14
5.0
 24
-8.0
 34
0.0
  3
MSADIM
  0
DIMENSION
  8
0
  6
CONTINUOUS
 62
     4
  5
10E
  2
*D7
 10
52.759333
 20
-8.0
 30
0.0
 11
52.384333
 21
2.500005
 31
0.0
 70
   128
 13
47.0
 23
13.0
 33
0.0
 14
47.0
 24
-8.0
 34
0.0
 50
-270.0
 51
-270.0
  3
MSADIM
  0
DIMENSION
  8
0
  6
CONTINUOUS
 62
     4
  5
11B
  2
*D8
 10
52.759333
 20
13.0
 30
0.0
 11
52.384333
 21
32.500005
 31
0.0
 70
   128
 13
47.0
 23
52.0
 33
0.0
 14
47.0
 24
13.0
 34
0.0
 50
-270.0
 51
-270.0
  3
MSADIM
  0
DIMENSION
  8
0
  6
CONTINUOUS
 62
     4
  5
129
  2
*D9
 10
55.062438
 20
-8.0
 30
0.0
 11
54.687438
 21
22.000005
 31
0.0
 70
   128
 13
47.0
 23
52.0
 33
0.0
 14
47.0
 24
-8.0
 34
0.0
 50
-270.0
 51
-270.0
  3
MSADIM
  0
DIMENSION
  8
0
  6
CONTINUOUS
 62
     4
  5
137
  2
*D10
 10
30.731826
 20
-12.731826
 30
0.0
 11
40.966658
 21
-1.966655
 31
0.0
 70
   129
 13
47.0
 23
13.0
 33
0.0
 14
26.0
 24
-8.0
 34
0.0
 50
-315.0
 51
-315.0
  3
MSADIM
  0
DIMENSION
  8
0
  6
CONTINUOUS
 62
     4
  5
146
  2
*D11
 10
16.9375
 20
2.521646
 30
0.0
 11
13.651036
 21
2.896646
 31
0.0
 70
   128
 13
17.9375
 23
5.104167
 33
0.0
 14
16.9375
 24
5.104167
 34
0.0
  3
MSADIM
  0
DIMENSION
  8
0
  6
CONTINUOUS
 62
     4
  5
155
  2
*D12
 10
5.0
 20
-11.811229
 30
0.0
 11
1.338536
 21
-11.436229
 31
0.0
 70
   128
 13
6.104167
 23
-6.895833
 33
0.0
 14
5.0
 24
-8.0
 34
0.0
  3
MSADIM
  0
DIMENSION
  8
0
  6
CONTINUOUS
 62
     4
  5
164
  2
*D13
 10
17.9375
 20
12.107906
 30
0.0
 11
15.401036
 21
12.482906
 31
0.0
 70
   128
 13
18.270833
 23
5.4375
 33
0.0
 14
17.9375
 24
5.4375
 34
0.0
  3
MSADIM
  0
DIMENSION
  8
0
  6
CONTINUOUS
 62
     4
  5
173
  2
*D14
 10
36.422152
 20
6.938343
 30
0.0
 11
38.480858
 21
9.527398
 31
0.0
 70
   129
 13
36.897747
 23
4.459274
 33
0.0
 14
37.89949
 24
5.461021
 34
0.0
 50
-134.999702
 51
-134.999702
  3
MSADIM
  0
DIMENSION
  8
0
  6
CONTINUOUS
 62
     4
  5
181
  2
*D15
 10
41.424807
 20
8.986339
 30
0.0
 11
37.447337
 21
13.494142
 31
0.0
 70
   129
 13
29.414208
 23
13.946302
 33
0.0
 14
37.89949
 24
5.461021
 34
0.0
 50
-225.0
 51
-225.0
  3
MSADIM
  0
LINE
  8
DRYWALL
  6
DASHDOT
 62
     5
  5
182
 10
45.895833
 20
19.0625
 30
0.0
 11
33.895833
 21
19.0625
 31
0.0
  0
LINE
  8
DRYWALL
  6
CONTINUOUS
 62
     2
  5
183
 10
45.895833
 20
18.895833
 30
0.0
 11
34.0625
 21
18.895833
 31
0.0
  0
LINE
  8
DRYWALL
  6
CONTINUOUS
 62
     2
  5
184
 10
45.895833
 20
19.229167
 30
0.0
 11
34.0625
 21
19.229167
 31
0.0
  0
LINE
  8
DRYWALL
  6
DASHDOT
 62
     5
  5
185
 10
33.895833
 20
38.895833
 30
0.0
 11
33.895833
 21
33.5625
 31
0.0
  0
LINE
  8
DRYWALL
  6
DASHDOT
 62
     5
  5
186
 10
33.895833
 20
30.229167
 30
0.0
 11
33.895833
 21
27.895833
 31
0.0
  0
LINE
  8
DRYWALL
  6
DASHDOT
 62
     5
  5
187
 10
33.895833
 20
24.5625
 30
0.0
 11
33.895833
 21
18.427927
 31
0.0
  0
LINE
  8
DRYWALL
  6
CONTINUOUS
 62
     2
  5
188
 10
34.0625
 20
38.895833
 30
0.0
 11
34.0625
 21
33.5625
 31
0.0
  0
LINE
  8
DRYWALL
  6
CONTINUOUS
 62
     2
  5
189
 10
34.0625
 20
30.229167
 30
0.0
 11
34.0625
 21
29.229167
 31
0.0
  0
LINE
  8
DRYWALL
  6
CONTINUOUS
 62
     2
  5
18A
 10
34.0625
 20
28.895833
 30
0.0
 11
34.0625
 21
27.895833
 31
0.0
  0
LINE
  8
DRYWALL
  6
CONTINUOUS
 62
     2
  5
18B
 10
34.0625
 20
24.5625
 30
0.0
 11
34.0625
 21
19.229167
 31
0.0
  0
LINE
  8
DRYWALL
  6
CONTINUOUS
 62
     2
  5
18C
 10
34.0625
 20
18.895833
 30
0.0
 11
34.0625
 21
18.358896
 31
0.0
  0
LINE
  8
DRYWALL
  6
CONTINUOUS
 62
     2
  5
18D
 10
33.729167
 20
38.895833
 30
0.0
 11
33.729167
 21
33.5625
 31
0.0
  0
LINE
  8
DRYWALL
  6
CONTINUOUS
 62
     2
  5
18E
 10
33.729167
 20
30.229167
 30
0.0
 11
33.729167
 21
27.895833
 31
0.0
  0
LINE
  8
DRYWALL
  6
CONTINUOUS
 62
     2
  5
18F
 10
33.729167
 20
24.5625
 30
0.0
 11
33.729167
 21
18.496958
 31
0.0
  0
DIMENSION
  8
0
  6
CONTINUOUS
 62
     4
  5
19D
  2
*D16
 10
43.645167
 20
19.0625
 30
0.0
 11
43.270167
 21
24.062505
 31
0.0
 70
   128
 13
45.895833
 23
29.0625
 33
0.0
 14
45.895833
 24
19.0625
 34
0.0
 50
-90.0
 51
-90.0
  3
MSADIM
  0
DIMENSION
  8
0
  6
CONTINUOUS
 62
     4
  5
1AA
  2
*D17
 10
43.645167
 20
29.0625
 30
0.0
 11
43.270167
 21
34.062505
 31
0.0
 70
   128
 13
45.895833
 23
39.0625
 33
0.0
 14
45.895833
 24
29.0625
 34
0.0
 50
-90.0
 51
-90.0
  3
MSADIM
  0
DIMENSION
  8
0
  6
CONTINUOUS
 62
     4
  5
1B7
  2
*D18
 10
43.645167
 20
39.0625
 30
0.0
 11
43.270167
 21
42.510693
 31
0.0
 70
   128
 13
45.895833
 23
50.895833
 33
0.0
 14
45.895833
 24
39.0625
 34
0.0
 50
-90.0
 51
-90.0
  3
MSADIM
  0
DIMENSION
  8
0
  6
CONTINUOUS
 62
     4
  5
1C5
  2
*D19
 10
45.895833
 20
36.457687
 30
0.0
 11
39.895828
 21
36.832687
 31
0.0
 70
   128
 13
33.895833
 23
38.895833
 33
0.0
 14
45.895833
 24
38.895833
 34
0.0
 50
-180.0
 51
-180.0
  3
MSADIM
  0
DIMENSION
  8
0
  6
CONTINUOUS
 62
     4
  5
1D3
  2
*D20
 10
45.895833
 20
47.160458
 30
0.0
 11
31.999995
 21
47.535458
 31
0.0
 70
   128
 13
18.104167
 23
50.895833
 33
0.0
 14
45.895833
 24
50.895833
 34
0.0
 50
-180.0
 51
-180.0
  3
MSADIM
  0
DIMENSION
  8
0
  6
CONTINUOUS
 62
     4
  5
1E0
  2
*D21
 10
18.104167
 20
47.160458
 30
0.0
 11
12.104161
 21
47.535458
 31
0.0
 70
   128
 13
6.104167
 23
50.895833
 33
0.0
 14
18.104167
 24
50.895833
 34
0.0
 50
-180.0
 51
-180.0
  3
MSADIM
  0
DIMENSION
  8
0
  6
CONTINUOUS
 62
     4
  5
1EE
  2
*D22
 10
8.583885
 20
50.895833
 30
0.0
 11
8.208885
 21
37.083328
 31
0.0
 70
   128
 13
6.104167
 23
23.270833
 33
0.0
 14
6.104167
 24
50.895833
 34
0.0
 50
-270.0
 51
-270.0
  3
MSADIM
  0
DIMENSION
  8
0
  6
CONTINUOUS
 62
     4
  5
1FB
  2
*D23
 10
8.583885
 20
23.270833
 30
0.0
 11
8.208885
 21
14.270828
 31
0.0
 70
   128
 13
6.104167
 23
5.270833
 33
0.0
 14
6.104167
 24
23.270833
 34
0.0
 50
-270.0
 51
-270.0
  3
MSADIM
  0
DIMENSION
  8
0
  6
CONTINUOUS
 62
     4
  5
208
  2
*D24
 10
8.583885
 20
5.270833
 30
0.0
 11
8.208885
 21
-0.812505
 31
0.0
 70
   128
 13
6.104167
 23
-6.895833
 33
0.0
 14
6.104167
 24
5.270833
 34
0.0
 50
-270.0
 51
-270.0
  3
MSADIM
  0
TEXT
  8
0
  6
CONTINUOUS
 62
     4
  5
209
 10
0.258521
 20
-12.674875
 30
0.0
 40
0.75
  1
(TYP.)
 41
0.666667
  7
ROMANS
 72
     4
 11
1.633521
 21
-12.299875
 31
0.0
210
0.0
220
0.0
230
1.0
  0
TEXT
  8
0
  6
CONTINUOUS
 62
     4
  5
20A
 10
12.572292
 20
1.749802
 30
0.0
 40
0.75
  1
(TYP.)
 41
0.666667
  7
ROMANS
 72
     4
 11
13.947292
 21
2.124802
 31
0.0
210
0.0
220
0.0
230
1.0
  0
TEXT
  8
0
  6
CONTINUOUS
 62
     4
  5
20B
 10
14.11151
 20
11.189521
 30
0.0
 40
0.75
  1
(TYP.)
 41
0.666667
  7
ROMANS
 72
     4
 11
15.48651
 21
11.564521
 31
0.0
210
0.0
220
0.0
230
1.0
  0
TEXT
  8
0
  6
CONTINUOUS
 62
     4
  5
20C
 10
37.966396
 20
6.468094
 30
0.0
 40
0.75
  1
(TYP.)
 50
45.0
 41
0.666667
  7
ROMANS
 72
     4
 11
38.673503
 21
7.705531
 31
0.0
210
0.0
220
0.0
230
1.0
  0
TEXT
  8
0
  6
CONTINUOUS
 62
     4
  5
20D
 10
27.703958
 20
44.343552
 30
0.0
 40
1.0
  1
Office 105
 41
0.75
  7
ROMANS
 72
     4
 11
31.298688
 21
44.843552
 31
0.0
210
0.0
220
0.0
230
1.0
  0
TEXT
  8
0
  6
CONTINUOUS
 62
     4
  5
20E
 10
36.993146
 20
16.324271
 30
0.0
 40
1.0
  1
Office 102
 41
0.75
  7
ROMANS
 72
     4
 11
40.586906
 21
16.824271
 31
0.0
210
0.0
220
0.0
230
1.0
  0
TEXT
  8
0
  6
CONTINUOUS
 62
     4
  5
20F
 10
20.542406
 20
0.504844
 30
0.0
 40
1.0
  1
Office 101
 41
0.75
  7
ROMANS
 72
     4
 11
24.042417
 21
1.004844
 31
0.0
210
0.0
220
0.0
230
1.0
  0
TEXT
  8
0
  6
CONTINUOUS
 62
     4
  5
210
 10
37.852417
 20
33.384458
 30
0.0
 40
1.0
  1
Ray
 41
0.75
  7
ROMANS
 72
     4
 11
38.860229
 21
33.884458
 31
0.0
210
0.0
220
0.0
230
1.0
  0
TEXT
  8
0
  6
CONTINUOUS
 62
     4
  5
211
 10
38.722792
 20
23.195115
 30
0.0
 40
1.0
  1
Kim
 41
0.75
  7
ROMANS
 72
     4
 11
39.783333
 21
23.695115
 31
0.0
210
0.0
220
0.0
230
1.0
  0
TEXT
  8
0
  6
CONTINUOUS
 62
     4
  5
212
 10
10.629
 20
44.412229
 30
0.0
 40
1.0
  1
Library
 41
0.75
  7
ROMANS
 72
     4
 11
13.136813
 21
44.912229
 31
0.0
210
0.0
220
0.0
230
1.0
  0
TEXT
  8
0
  6
CONTINUOUS
 62
     4
  5
213
 10
10.570385
 20
15.402094
 30
0.0
 40
1.0
  1
Kitchen
 41
0.75
  7
ROMANS
 72
     4
 11
13.076229
 21
15.902094
 31
0.0
210
0.0
220
0.0
230
1.0
  0
TEXT
  8
0
  6
CONTINUOUS
 62
     4
  5
214
 10
10.874437
 20
-2.194188
 30
0.0
 40
1.0
  1
Storage
 41
0.75
  7
ROMANS
 72
     4
 11
13.38225
 21
-1.694188
 31
0.0
210
0.0
220
0.0
230
1.0
  0
TEXT
  8
0
  6
CONTINUOUS
 62
     4
  5
215
 10
22.503417
 20
27.870719
 30
0.0
 40
1.0
  1
Reception
 41
0.75
  7
ROMANS
 72
     4
 11
25.75926
 21
28.370719
 31
0.0
210
0.0
220
0.0
230
1.0
  0
TEXT
  8
0
  6
CONTINUOUS
 62
     4
  5
216
 10
24.366604
 20
26.370719
 30
0.0
 40
1.0
  1
Area
 41
0.75
  7
ROMANS
 72
     4
 11
25.745521
 21
26.870719
 31
0.0
210
0.0
220
0.0
230
1.0
  0
ENDSEC
  0
EOF
